<svg width="116" height="108" viewBox="0 0 116 108" fill="none" xmlns="http://www.w3.org/2000/svg">
<path d="M41.8889 0C35.8674 0 30.8729 4.28679 29.4431 10.0792C29.2819 10.0792 29.1611 10.0374 29 10.0374C21.891 10.0374 16.1111 16.0389 16.1111 23.4205C16.1111 24.4243 16.2319 25.4071 16.4535 26.3481C10.5729 28.8574 6.44444 34.838 6.44444 41.8224C6.44444 44.4572 7.08889 46.9038 8.11597 49.1204C3.28264 52.0061 0 57.3594 0 63.57C0 70.5334 4.10833 76.514 9.94861 79.0234C9.76736 79.9853 9.66667 80.9681 9.66667 81.9719C9.66667 90.2945 16.1514 97.0279 24.1667 97.0279C24.9924 97.0279 25.7979 96.9233 26.5833 96.777C28.5167 102.737 33.8736 107.065 40.2778 107.065C48.2931 107.065 54.7778 100.332 54.7778 92.0092V13.3832C54.7778 6.00151 48.9979 0 41.8889 0ZM116 63.57C116 57.3594 112.717 52.0061 107.884 49.1204C108.931 46.9038 109.556 44.4572 109.556 41.8224C109.556 34.838 105.427 28.8574 99.5465 26.3481C99.7479 25.4071 99.8889 24.4243 99.8889 23.4205C99.8889 16.0389 94.109 10.0374 87 10.0374C86.8389 10.0374 86.6979 10.0792 86.5569 10.0792C85.1271 4.28679 80.1326 0 74.1111 0C67.0021 0 61.2222 5.9806 61.2222 13.3832V92.0092C61.2222 100.332 67.7069 107.065 75.7222 107.065C82.1264 107.065 87.4833 102.737 89.4167 96.777C90.2021 96.9233 91.0076 97.0279 91.8333 97.0279C99.8486 97.0279 106.333 90.2945 106.333 81.9719C106.333 80.9681 106.233 79.9853 106.051 79.0234C111.892 76.514 116 70.5334 116 63.57Z" fill="#001438"/>
</svg>
