<svg width="48" height="48" viewBox="0 0 48 48" fill="none" xmlns="http://www.w3.org/2000/svg">
<path d="M17.3333 0C14.8417 0 12.775 1.92187 12.1833 4.51875C12.1167 4.51875 12.0667 4.5 12 4.5C9.05833 4.5 6.66667 7.19062 6.66667 10.5C6.66667 10.95 6.71667 11.3906 6.80833 11.8125C4.375 12.9375 2.66667 15.6187 2.66667 18.75C2.66667 19.9312 2.93333 21.0281 3.35833 22.0219C1.35833 23.3156 0 25.7156 0 28.5C0 31.6219 1.7 34.3031 4.11667 35.4281C4.04167 35.8594 4 36.3 4 36.75C4 40.4813 6.68333 43.5 10 43.5C10.3417 43.5 10.675 43.4531 11 43.3875C11.8 46.0594 14.0167 48 16.6667 48C19.9833 48 22.6667 44.9813 22.6667 41.25V6C22.6667 2.69062 20.275 0 17.3333 0ZM48 28.5C48 25.7156 46.6417 23.3156 44.6417 22.0219C45.075 21.0281 45.3333 19.9312 45.3333 18.75C45.3333 15.6187 43.625 12.9375 41.1917 11.8125C41.275 11.3906 41.3333 10.95 41.3333 10.5C41.3333 7.19062 38.9417 4.5 36 4.5C35.9333 4.5 35.875 4.51875 35.8167 4.51875C35.225 1.92187 33.1583 0 30.6667 0C27.725 0 25.3333 2.68125 25.3333 6V41.25C25.3333 44.9813 28.0167 48 31.3333 48C33.9833 48 36.2 46.0594 37 43.3875C37.325 43.4531 37.6583 43.5 38 43.5C41.3167 43.5 44 40.4813 44 36.75C44 36.3 43.9583 35.8594 43.8833 35.4281C46.3 34.3031 48 31.6219 48 28.5Z" fill="#001438"/>
</svg>
