<svg width="102" height="95" viewBox="0 0 102 95" fill="none" xmlns="http://www.w3.org/2000/svg">
<path d="M36.7059 0C31.4294 0 27.0529 3.7911 25.8 8.9137C25.6588 8.9137 25.5529 8.87671 25.4118 8.87671C19.1824 8.87671 14.1176 14.1842 14.1176 20.7123C14.1176 21.6 14.2235 22.4692 14.4176 23.3014C9.2647 25.5205 5.64706 30.8096 5.64706 36.9863C5.64706 39.3164 6.21176 41.4801 7.11176 43.4404C2.87647 45.9925 0 50.7267 0 56.2192C0 62.3774 3.6 67.6664 8.71765 69.8856C8.55882 70.7363 8.47059 71.6055 8.47059 72.4931C8.47059 79.8534 14.1529 85.8082 21.1765 85.8082C21.9 85.8082 22.6059 85.7158 23.2941 85.5863C24.9882 90.8568 29.6824 94.6849 35.2941 94.6849C42.3176 94.6849 48 88.7301 48 81.3699V11.8356C48 5.30753 42.9353 0 36.7059 0ZM101.647 56.2192C101.647 50.7267 98.7706 45.9925 94.5353 43.4404C95.4529 41.4801 96 39.3164 96 36.9863C96 30.8096 92.3823 25.5205 87.2294 23.3014C87.4059 22.4692 87.5294 21.6 87.5294 20.7123C87.5294 14.1842 82.4647 8.87671 76.2353 8.87671C76.0941 8.87671 75.9706 8.9137 75.8471 8.9137C74.5941 3.7911 70.2176 0 64.9412 0C58.7118 0 53.6471 5.28904 53.6471 11.8356V81.3699C53.6471 88.7301 59.3294 94.6849 66.3529 94.6849C71.9647 94.6849 76.6588 90.8568 78.3529 85.5863C79.0412 85.7158 79.7471 85.8082 80.4706 85.8082C87.4941 85.8082 93.1765 79.8534 93.1765 72.4931C93.1765 71.6055 93.0882 70.7363 92.9294 69.8856C98.0471 67.6664 101.647 62.3774 101.647 56.2192Z" fill="#FFB277"/>
</svg>
