<svg width="128" height="128" viewBox="0 0 128 128" fill="none" xmlns="http://www.w3.org/2000/svg">
<g clip-path="url(#clip0_507_100)">
<path d="M24.3572 4.26516C24.3572 3.13397 23.9169 2.04911 23.1333 1.24924C22.3497 0.449363 21.2868 0 20.1786 0C19.0704 0 18.0075 0.449363 17.2239 1.24924C16.4403 2.04911 16 3.13397 16 4.26516C16 12.8125 21.733 17.1886 25.6943 20.2168L26.0286 20.4727C30.4244 23.8337 32.7143 25.8468 32.7143 29.8561C32.7143 30.9873 33.1545 32.0721 33.9382 32.872C34.7218 33.6719 35.7846 34.1212 36.8929 34.1212C38.0011 34.1212 39.0639 33.6719 39.8476 32.872C40.6312 32.0721 41.0714 30.9873 41.0714 29.8561C41.0714 21.3087 35.3384 16.9327 31.3772 13.9044L31.0429 13.6485C26.647 10.2876 24.3572 8.2744 24.3572 4.26516ZM49.4286 4.26516C49.4286 3.13397 48.9883 2.04911 48.2047 1.24924C47.4211 0.449363 46.3582 0 45.25 0C44.1418 0 43.079 0.449363 42.2953 1.24924C41.5117 2.04911 41.0714 3.13397 41.0714 4.26516C41.0714 12.8125 46.8044 17.1886 50.7657 20.2168L51.1 20.4727C55.4959 23.8337 57.7857 25.8468 57.7857 29.8561C57.7857 30.9873 58.226 32.0721 59.0096 32.872C59.7932 33.6719 60.8561 34.1212 61.9643 34.1212C63.0725 34.1212 64.1354 33.6719 64.919 32.872C65.7026 32.0721 66.1429 30.9873 66.1429 29.8561C66.1429 21.3087 60.4099 16.9327 56.4486 13.9044L56.1143 13.6485C51.7184 10.2876 49.4286 8.2744 49.4286 4.26516ZM70.3214 0C71.4297 0 72.4925 0.449363 73.2761 1.24924C74.0598 2.04911 74.5 3.13397 74.5 4.26516C74.5 8.2744 76.7899 10.2876 81.1857 13.6485L81.52 13.9044C85.4813 16.9327 91.2143 21.3087 91.2143 29.8561C91.2143 30.9873 90.7741 32.0721 89.9904 32.872C89.2068 33.6719 88.144 34.1212 87.0357 34.1212C85.9275 34.1212 84.8647 33.6719 84.081 32.872C83.2974 32.0721 82.8572 30.9873 82.8572 29.8561C82.8572 25.8468 80.5673 23.8337 76.1714 20.4727L75.8372 20.2168C71.8759 17.1886 66.1429 12.8125 66.1429 4.26516C66.1429 3.13397 66.5831 2.04911 67.3667 1.24924C68.1504 0.449363 69.2132 0 70.3214 0ZM16 50.2521C16 46.0637 19.3345 42.6516 23.4462 42.6516H100.482C104.594 42.6516 107.929 46.0551 107.929 50.2521V51.1819H112.107C117.648 51.1819 122.962 53.4287 126.881 57.428C130.799 61.4274 133 66.8517 133 72.5076C133 78.1636 130.799 83.5879 126.881 87.5872C122.962 91.5866 117.648 93.8334 112.107 93.8334H106.199C103.182 104.739 96.3994 114.161 87.1053 120.36C77.8112 126.558 66.6333 129.113 55.637 127.553C44.6407 125.993 34.5691 120.424 27.2832 111.873C19.9972 103.323 15.9893 92.37 16 81.0379V50.2521ZM107.745 85.3031H112.107C115.432 85.3031 118.62 83.955 120.971 81.5554C123.322 79.1558 124.643 75.9012 124.643 72.5076C124.643 69.1141 123.322 65.8595 120.971 63.4599C118.62 61.0603 115.432 59.7122 112.107 59.7122H107.929V81.0379C107.929 82.4796 107.862 83.8956 107.745 85.3031Z" fill="#001438"/>
</g>
<defs>
<clipPath id="clip0_507_100">
<rect width="128" height="128" fill="white"/>
</clipPath>
</defs>
</svg>
