<svg width="16" height="16" viewBox="0 0 16 16" fill="none" xmlns="http://www.w3.org/2000/svg">
<path d="M2.66683 13.3334C2.30016 13.3334 1.98616 13.2027 1.72483 12.9414C1.4635 12.68 1.33305 12.3662 1.3335 12V4.00002C1.3335 3.63335 1.46416 3.31935 1.7255 3.05802C1.98683 2.79669 2.30061 2.66624 2.66683 2.66669H13.3335C13.7002 2.66669 14.0142 2.79735 14.2755 3.05869C14.5368 3.32002 14.6673 3.6338 14.6668 4.00002V12C14.6668 12.3667 14.5362 12.6807 14.2748 12.942C14.0135 13.2034 13.6997 13.3338 13.3335 13.3334H2.66683ZM8.00016 8.55002C8.05572 8.55002 8.11416 8.54158 8.1755 8.52469C8.23683 8.5078 8.29505 8.48291 8.35016 8.45002L13.0668 5.50002C13.1557 5.44447 13.2224 5.37491 13.2668 5.29135C13.3113 5.2078 13.3335 5.11624 13.3335 5.01669C13.3335 4.79447 13.2391 4.6278 13.0502 4.51669C12.8613 4.40558 12.6668 4.41113 12.4668 4.53335L8.00016 7.33335L3.5335 4.53335C3.3335 4.41113 3.13905 4.40847 2.95016 4.52535C2.76128 4.64224 2.66683 4.80602 2.66683 5.01669C2.66683 5.1278 2.68905 5.22513 2.7335 5.30869C2.77794 5.39224 2.84461 5.45602 2.9335 5.50002L7.65016 8.45002C7.70572 8.48335 7.76416 8.50847 7.8255 8.52535C7.88683 8.54224 7.94505 8.55047 8.00016 8.55002Z" fill="white"/>
</svg>
