<svg width="144" height="128" viewBox="0 0 144 128" fill="none" xmlns="http://www.w3.org/2000/svg">
<path fill-rule="evenodd" clip-rule="evenodd" d="M132.752 34.2222C132.752 38.9416 130.742 43.4859 127.125 46.9406C123.507 50.3953 118.553 52.504 113.257 52.8422L102.578 62.3311C105.571 66.8329 106.918 72.8062 107.58 79.4484C108.252 86.1964 108.252 94.0862 108.252 102.558V105.778H101.252V102.667C101.252 94.0675 101.252 86.4422 100.608 79.9991C100.044 74.3556 99.0154 69.9595 97.3074 66.7676C93.1179 66.2698 89.2924 64.3969 86.0164 62.0884C82.1524 59.3693 78.7154 55.8195 75.8874 52.3973C73.1722 49.0822 70.7108 45.6086 68.5199 42C63.8159 44.8933 57.4774 46.6667 50.5019 46.6667C36.0049 46.6667 24.252 39.0071 24.252 29.5556C24.252 20.8662 34.1849 13.6889 47.0544 12.5907C51.5414 5.264 63.9244 0 78.5019 0C94.9799 0 108.658 6.72933 111.293 15.5587L111.752 15.5556C117.321 15.5556 122.663 17.5222 126.601 21.0229C130.539 24.5236 132.752 29.2715 132.752 34.2222ZM90.8464 36.0049C86.8087 36.8971 82.6625 37.3432 78.5019 37.3333C76.9829 37.3333 75.4849 37.2773 74.0219 37.1653L73.7559 37.5013C74.1339 38.1484 74.6309 38.9853 75.2399 39.9498C77.2407 43.1509 79.4713 46.2342 81.9179 49.1804V48.7262C85.7854 48.7262 89.8454 46.8689 93.2124 44.6569C93.4714 44.4889 93.7234 44.3209 93.9649 44.1498C92.2218 41.6895 91.1536 38.8995 90.8464 36.0049ZM98.6374 48.8009C100.419 50.0693 102.422 51.0708 104.566 51.7658L95.3964 59.9169C93.7689 59.332 92.0854 58.4235 90.3599 57.2102C89.1225 56.3301 87.9499 55.3803 86.8494 54.3667C90.9899 53.4147 94.6544 51.4453 97.3704 49.6658C97.8114 49.3764 98.2349 49.0871 98.6374 48.8009Z" fill="#001438"/>
<path d="M40.014 68.4509C42.3346 68.4493 44.5595 67.6282 46.1991 66.1685C47.8387 64.7087 48.7588 62.7297 48.757 60.6669C48.7551 58.6041 47.8315 56.6265 46.1892 55.169C44.547 53.7116 42.3206 52.8937 40 52.8954C37.6793 52.897 35.4545 53.718 33.8148 55.1778C33.003 55.9006 32.3592 56.7585 31.9204 57.7025C31.4815 58.6464 31.2561 59.658 31.257 60.6794C31.2579 61.7007 31.4851 62.712 31.9257 63.6553C32.3663 64.5986 33.0116 65.4556 33.8247 66.1773C35.467 67.6347 37.6933 68.4526 40.014 68.4509ZM15.514 80.8954C17.8346 80.8937 20.0595 80.0727 21.6991 78.6129C23.3388 77.1531 24.2588 75.1741 24.257 73.1114C24.2551 71.0486 23.3315 69.0709 21.6892 67.6135C20.047 66.156 17.8206 65.3382 15.5 65.3398C13.1794 65.3415 10.9545 66.1625 9.31486 67.6223C7.67523 69.082 6.75514 71.061 6.757 73.1238C6.75886 75.1866 7.68251 77.1642 9.32476 78.6217C10.967 80.0791 13.1934 80.897 15.514 80.8954ZM83.757 73.1114C83.7579 74.1327 83.5324 75.1443 83.0936 76.0883C82.6547 77.0322 82.0109 77.8901 81.1991 78.6129C80.3872 79.3357 79.4231 79.9093 78.3619 80.3009C77.3007 80.6926 76.163 80.8945 75.014 80.8954C72.6933 80.897 70.467 80.0791 68.8247 78.6217C67.1825 77.1642 66.2588 75.1866 66.257 73.1238C66.256 72.1024 66.4815 71.0909 66.9203 70.1469C67.3592 69.2029 68.003 68.3451 68.8148 67.6223C70.4545 66.1625 72.6793 65.3415 75 65.3398C77.3206 65.3382 79.5469 66.156 81.1892 67.6135C82.8314 69.0709 83.7551 71.0486 83.757 73.1114ZM38.25 71.5558C40.1065 71.5558 41.887 72.2114 43.1997 73.3782C44.5125 74.5451 45.25 76.1278 45.25 77.778V84.0002H52.25C54.1065 84.0002 55.887 84.6558 57.1997 85.8227C58.5125 86.9896 59.25 88.5722 59.25 90.2225C59.25 91.8727 58.5125 93.4554 57.1997 94.6222C55.887 95.7891 54.1065 96.4447 52.25 96.4447H38.25C36.3935 96.4447 34.613 95.7891 33.3002 94.6222C31.9875 93.4554 31.25 91.8727 31.25 90.2225V77.778C31.25 76.1278 31.9875 74.5451 33.3002 73.3782C34.613 72.2114 36.3935 71.5558 38.25 71.5558ZM20.75 90.2225C20.75 88.5722 20.0125 86.9896 18.6997 85.8227C17.387 84.6558 15.6065 84.0002 13.75 84.0002C11.8935 84.0002 10.113 84.6558 8.80025 85.8227C7.4875 86.9896 6.75 88.5722 6.75 90.2225V105.778C6.75 107.428 7.4875 109.011 8.80025 110.178C10.113 111.345 11.8935 112 13.75 112H27.75C29.6065 112 31.387 111.345 32.6997 110.178C34.0125 109.011 34.75 107.428 34.75 105.778C34.75 104.128 34.0125 102.545 32.6997 101.378C31.387 100.211 29.6065 99.5558 27.75 99.5558H20.75V90.2225ZM76.75 84.0002C74.8934 84.0002 73.113 84.6558 71.8002 85.8227C70.4875 86.9896 69.75 88.5722 69.75 90.2225V99.5558H62.75C60.8934 99.5558 59.113 100.211 57.8002 101.378C56.4875 102.545 55.75 104.128 55.75 105.778C55.75 107.428 56.4875 109.011 57.8002 110.178C59.113 111.345 60.8934 112 62.75 112H76.75C78.6065 112 80.3869 111.345 81.6997 110.178C83.0125 109.011 83.7499 107.428 83.7499 105.778V90.2225C83.7499 88.5722 83.0125 86.9896 81.6997 85.8227C80.3869 84.6558 78.6065 84.0002 76.75 84.0002Z" fill="#001438"/>
</svg>
