<svg width="104" height="104" viewBox="0 0 128 104" fill="none" xmlns="http://www.w3.org/2000/svg">
<path d="M111.203 84.929C113.52 80.8743 115.257 76.2404 115.257 71.0273C115.257 56.5465 103.673 44.9618 89.1931 44.9618C74.7129 44.9618 63.1287 56.5465 63.1287 71.0273C63.1287 85.5082 74.7129 97.0929 89.1931 97.0929C94.4059 97.0929 99.0396 95.3552 103.094 93.0383L119.891 109.836L128 101.727L111.203 84.929ZM89.1931 85.5082C81.0842 85.5082 74.7129 79.1366 74.7129 71.0273C74.7129 62.918 81.0842 56.5465 89.1931 56.5465C97.302 56.5465 103.673 62.918 103.673 71.0273C103.673 79.1366 97.302 85.5082 89.1931 85.5082ZM84.5594 108.098C82.2426 110.415 79.9257 112.153 77.6089 114.47L68.9208 122L60.2327 114.47C30.6931 87.8251 11 69.8689 11 47.8579C11 29.9016 24.901 16 42.8564 16C52.703 16 62.5495 20.6339 68.9208 28.1639C75.2921 20.6339 85.1386 16 94.9852 16C112.941 16 126.842 29.9016 126.842 47.8579C126.842 51.9126 126.262 55.388 125.104 59.4426C119.891 44.3825 105.99 33.3771 89.1931 33.3771C68.3416 33.3771 51.5446 50.1749 51.5446 71.0273C51.5446 90.1421 66.0248 105.781 84.5594 108.098Z" fill="#001438"/>
</svg>
