<svg width="114" height="108" viewBox="0 0 114 108" fill="none" xmlns="http://www.w3.org/2000/svg">
<path d="M57 53.5326C74.9906 53.5326 89.5714 41.5505 89.5714 26.7663C89.5714 11.9821 74.9906 0 57 0C39.0094 0 24.4286 11.9821 24.4286 26.7663C24.4286 41.5505 39.0094 53.5326 57 53.5326ZM81.3777 60.3497L69.2143 100.374L61.0714 71.9345L69.2143 60.2242H44.7857L52.9286 71.9345L44.7857 100.374L32.6223 60.3497C14.479 61.0607 0 73.2519 0 88.3288V97.0279C0 102.569 5.47098 107.065 12.2143 107.065H101.786C108.529 107.065 114 102.569 114 97.0279V88.3288C114 73.2519 99.521 61.0607 81.3777 60.3497Z" fill="#001438"/>
</svg>
