<svg width="48" height="48" viewBox="0 0 48 48" fill="none" xmlns="http://www.w3.org/2000/svg">
<path d="M24 24C31.575 24 37.7143 18.6281 37.7143 12C37.7143 5.37188 31.575 0 24 0C16.425 0 10.2857 5.37188 10.2857 12C10.2857 18.6281 16.425 24 24 24ZM34.2643 27.0563L29.1429 45L25.7143 32.25L29.1429 27H18.8571L22.2857 32.25L18.8571 45L13.7357 27.0563C6.09643 27.375 0 32.8406 0 39.6V43.5C0 45.9844 2.30357 48 5.14286 48H42.8571C45.6964 48 48 45.9844 48 43.5V39.6C48 32.8406 41.9036 27.375 34.2643 27.0563Z" fill="#001438"/>
</svg>
