<svg width="102" height="95" viewBox="0 0 102 95" fill="none" xmlns="http://www.w3.org/2000/svg">
<path d="M47.6471 47.3425C62.6857 47.3425 74.8739 36.7459 74.8739 23.6712C74.8739 10.5966 62.6857 0 47.6471 0C32.6085 0 20.4202 10.5966 20.4202 23.6712C20.4202 36.7459 32.6085 47.3425 47.6471 47.3425ZM68.0247 53.3712L57.8571 88.7671L51.0504 63.6164L57.8571 53.2603H37.437L44.2437 63.6164L37.437 88.7671L27.2694 53.3712C12.1032 54 0 64.7815 0 78.1151V85.8082C0 90.7089 4.57327 94.6849 10.2101 94.6849H85.084C90.7208 94.6849 95.2941 90.7089 95.2941 85.8082V78.1151C95.2941 64.7815 83.1909 54 68.0247 53.3712Z" fill="#FFB277"/>
</svg>
