<svg width="124" height="108" viewBox="0 0 124 108" fill="none" xmlns="http://www.w3.org/2000/svg">
<path d="M49.4121 54.7141C50.623 56.0211 52.5857 56.0211 53.7966 54.7141L55.9879 52.3491C57.1989 51.0421 57.1989 48.9238 55.9879 47.6169L49.0672 40.1495L55.986 32.68C57.1969 31.3731 57.1969 29.2547 55.986 27.9478L53.7947 25.5827C52.5837 24.2758 50.6211 24.2758 49.4101 25.5827L38.1067 37.7823C36.8958 39.0893 36.8958 41.2076 38.1067 42.5145L49.4121 54.7141ZM68.014 52.3512L70.2053 54.7162C71.4163 56.0232 73.3789 56.0232 74.5899 54.7162L85.8932 42.5166C87.1042 41.2097 87.1042 39.0914 85.8932 37.7844L74.5899 25.5848C73.3789 24.2779 71.4163 24.2779 70.2053 25.5848L68.014 27.9499C66.8031 29.2568 66.8031 31.3751 68.014 32.6821L74.9328 40.1495L68.014 47.619C66.8031 48.9259 66.8031 51.0442 68.014 52.3512ZM120.9 86.9905H73.9234C73.78 91.133 71.0733 93.6821 67.58 93.6821H55.8C52.1788 93.6821 49.4024 90.0289 49.4508 86.9905H3.1C1.395 86.9905 0 88.4961 0 90.3363V93.6821C0 101.043 5.58 107.065 12.4 107.065H111.6C118.42 107.065 124 101.043 124 93.6821V90.3363C124 88.4961 122.605 86.9905 120.9 86.9905ZM111.6 10.0374C111.6 4.51682 107.415 0 102.3 0H21.7C16.585 0 12.4 4.51682 12.4 10.0374V80.299H111.6V10.0374ZM99.2 66.9158H24.8V13.3832H99.2V66.9158Z" fill="#001438"/>
</svg>
