<svg width="48" height="48" viewBox="0 0 48 48" fill="none" xmlns="http://www.w3.org/2000/svg">
<path d="M19.1272 24.5297C19.596 25.1156 20.3557 25.1156 20.8245 24.5297L21.6727 23.4694C22.1415 22.8834 22.1415 21.9338 21.6727 21.3478L18.9937 18L21.672 14.6513C22.1407 14.0653 22.1407 13.1156 21.672 12.5297L20.8237 11.4694C20.355 10.8834 19.5952 10.8834 19.1265 11.4694L14.751 16.9387C14.2822 17.5247 14.2822 18.4744 14.751 19.0603L19.1272 24.5297ZM26.328 23.4703L27.1763 24.5306C27.645 25.1166 28.4047 25.1166 28.8735 24.5306L33.249 19.0613C33.7178 18.4753 33.7178 17.5256 33.249 16.9397L28.8735 11.4703C28.4047 10.8844 27.645 10.8844 27.1763 11.4703L26.328 12.5306C25.8592 13.1166 25.8592 14.0662 26.328 14.6522L29.0062 18L26.328 21.3487C25.8592 21.9347 25.8592 22.8844 26.328 23.4703ZM46.8 39H28.6155C28.56 40.8572 27.5122 42 26.16 42H21.6C20.1982 42 19.1235 40.3622 19.1422 39H1.2C0.54 39 0 39.675 0 40.5V42C0 45.3 2.16 48 4.8 48H43.2C45.84 48 48 45.3 48 42V40.5C48 39.675 47.46 39 46.8 39ZM43.2 4.5C43.2 2.025 41.58 0 39.6 0H8.4C6.42 0 4.8 2.025 4.8 4.5V36H43.2V4.5ZM38.4 30H9.6V6H38.4V30Z" fill="#001438"/>
</svg>
