<svg width="102" height="95" viewBox="0 0 102 95" fill="none" xmlns="http://www.w3.org/2000/svg">
<path d="M40.5048 48.3873C41.4974 49.5431 43.1063 49.5431 44.0989 48.3873L45.8952 46.2957C46.8879 45.1399 46.8879 43.2666 45.8952 42.1108L40.2221 35.5068L45.8936 28.9011C46.8863 27.7453 46.8863 25.8719 45.8936 24.7161L44.0974 22.6245C43.1047 21.4687 41.4958 21.4687 40.5032 22.6245L31.2374 33.4134C30.2448 34.5692 30.2448 36.4426 31.2374 37.5984L40.5048 48.3873ZM55.7534 46.2976L57.5497 48.3892C58.5424 49.545 60.1512 49.545 61.1439 48.3892L70.4096 37.6003C71.4023 36.4445 71.4023 34.5711 70.4096 33.4153L61.1439 22.6264C60.1512 21.4705 58.5424 21.4705 57.5497 22.6264L55.7534 24.7179C54.7608 25.8738 54.7608 27.7471 55.7534 28.9029L61.425 35.5068L55.7534 42.1126C54.7608 43.2684 54.7608 45.1418 55.7534 46.2976ZM99.1059 76.9315H60.5975C60.48 80.595 58.2612 82.8493 55.3976 82.8493H45.7412C42.7728 82.8493 40.4968 79.6186 40.5365 76.9315H2.54118C1.14353 76.9315 0 78.263 0 79.8904V82.8493C0 89.3589 4.57412 94.6849 10.1647 94.6849H91.4824C97.0729 94.6849 101.647 89.3589 101.647 82.8493V79.8904C101.647 78.263 100.504 76.9315 99.1059 76.9315ZM91.4824 8.87671C91.4824 3.99452 88.0518 0 83.8588 0H17.7882C13.5953 0 10.1647 3.99452 10.1647 8.87671V71.0137H91.4824V8.87671ZM81.3176 59.1781H20.3294V11.8356H81.3176V59.1781Z" fill="#FFB277"/>
</svg>
