<svg width="35" height="35" viewBox="0 0 35 35" fill="none" xmlns="http://www.w3.org/2000/svg">
<path fill-rule="evenodd" clip-rule="evenodd" d="M1.4585 4.13867C1.4585 3.42778 1.7409 2.74601 2.24357 2.24333C2.74625 1.74066 3.42802 1.45826 4.13891 1.45826H30.8585C31.2108 1.45768 31.5597 1.5266 31.8854 1.66106C32.211 1.79552 32.5069 1.99289 32.7562 2.24187C33.0054 2.49085 33.2031 2.78654 33.3379 3.11202C33.4727 3.4375 33.542 3.78638 33.5418 4.13867V30.8583C33.5422 31.2106 33.4731 31.5596 33.3385 31.8852C33.2039 32.2109 33.0064 32.5068 32.7573 32.756C32.5082 33.0052 32.2124 33.2029 31.8868 33.3377C31.5613 33.4725 31.2123 33.5418 30.86 33.5416H4.13891C3.78679 33.5416 3.43812 33.4722 3.11283 33.3374C2.78753 33.2026 2.49198 33.0051 2.24306 32.756C1.99414 32.5069 1.79673 32.2113 1.66211 31.8859C1.52749 31.5605 1.4583 31.2118 1.4585 30.8597V4.13867ZM14.1577 13.6908H18.502V15.8724C19.1291 14.6183 20.7333 13.4895 23.1439 13.4895C27.7654 13.4895 28.8606 15.9876 28.8606 20.5712V29.0616H24.1837V21.6153C24.1837 19.0049 23.5566 17.532 21.9641 17.532C19.7547 17.532 18.836 19.1201 18.836 21.6153V29.0616H14.1577V13.6908ZM6.13683 28.8618H10.8152V13.4895H6.13683V28.8618ZM11.4845 8.47576C11.4934 8.87632 11.4221 9.27461 11.2749 9.64726C11.1277 10.0199 10.9076 10.3594 10.6274 10.6458C10.3472 10.9322 10.0126 11.1598 9.64333 11.3151C9.27401 11.4705 8.87739 11.5505 8.47673 11.5505C8.07606 11.5505 7.67944 11.4705 7.31013 11.3151C6.94081 11.1598 6.60625 10.9322 6.32608 10.6458C6.0459 10.3594 5.82576 10.0199 5.67856 9.64726C5.53137 9.27461 5.46009 8.87632 5.46891 8.47576C5.48623 7.6895 5.81072 6.94128 6.37291 6.39134C6.9351 5.84139 7.69028 5.53345 8.47673 5.53345C9.26317 5.53345 10.0184 5.84139 10.5805 6.39134C11.1427 6.94128 11.4672 7.6895 11.4845 8.47576Z" fill="white"/>
</svg>
