<svg width="128" height="128" viewBox="0 0 128 128" fill="none" xmlns="http://www.w3.org/2000/svg">
<g clip-path="url(#clip0_507_81)">
<path d="M119.844 27C114.233 27 109.688 31.5402 109.688 37.1389C109.688 38.2886 109.921 39.3735 110.272 40.4036L85.5156 61.6851C83.7789 60.3042 81.6116 59.4444 79.2188 59.4444C76.4584 59.4444 73.962 60.5516 72.1338 62.3361L52.7414 52.6433C52.3637 47.3852 48.0189 43.2222 42.6562 43.2222C37.0481 43.2222 32.5 47.7624 32.5 53.3611C32.5 54.8941 32.8656 56.3318 33.475 57.6336L13.7028 80.3934C12.5938 79.9798 11.4095 79.7222 10.1562 79.7222C4.54797 79.7222 0 84.2624 0 89.8611C0 95.4598 4.54797 100 10.1562 100C15.7645 100 20.3125 95.4598 20.3125 89.8611C20.3125 88.5126 20.0363 87.2292 19.5569 86.0529L39.65 62.9971C40.6067 63.2932 41.602 63.5 42.6562 63.5C45.6117 63.5 48.2482 62.2184 50.1047 60.2049L69.0725 69.6989C69.1397 75.2429 73.6489 79.7222 79.2188 79.7222C84.8292 79.7222 89.375 75.182 89.375 69.5833C89.375 69.4029 89.3323 69.2346 89.3222 69.0561L115.741 46.3997C116.998 46.9554 118.379 47.2778 119.844 47.2778C125.454 47.2778 130 42.7396 130 37.1389C130 31.5402 125.454 27 119.844 27Z" fill="#001438"/>
</g>
<defs>
<clipPath id="clip0_507_81">
<rect width="128" height="128" fill="white"/>
</clipPath>
</defs>
</svg>
