<svg width="39" height="40" viewBox="0 0 39 40" fill="none" xmlns="http://www.w3.org/2000/svg">
<path fill-rule="evenodd" clip-rule="evenodd" d="M0.283204 3.9665C0.283204 3.11344 0.622084 2.29531 1.22529 1.6921C1.82851 1.08888 2.64663 0.750004 3.4997 0.750004H35.5632C35.986 0.749314 36.4047 0.832014 36.7954 0.993371C37.1862 1.15473 37.5413 1.39157 37.8404 1.69034C38.1395 1.98911 38.3767 2.34395 38.5385 2.73452C38.7003 3.1251 38.7834 3.54375 38.7832 3.9665V36.03C38.7837 36.4528 38.7007 36.8716 38.5392 37.2624C38.3776 37.6531 38.1406 38.0082 37.8417 38.3073C37.5428 38.6064 37.1879 38.8436 36.7972 39.0053C36.4065 39.1671 35.9878 39.2502 35.5649 39.25H3.4997C3.07716 39.25 2.65876 39.1667 2.2684 39.005C1.87804 38.8432 1.52338 38.6062 1.22468 38.3073C0.925973 38.0084 0.689084 37.6536 0.527543 37.2632C0.366001 36.8727 0.282974 36.4543 0.283204 36.0317V3.9665ZM15.5222 15.429H20.7355V18.047C21.488 16.542 23.413 15.1875 26.3057 15.1875C31.8514 15.1875 33.1657 18.1853 33.1657 23.6855V33.874H27.5535V24.9385C27.5535 21.806 26.801 20.0385 24.89 20.0385C22.2387 20.0385 21.1362 21.9443 21.1362 24.9385V33.874H15.5222V15.429ZM5.8972 33.6343H11.5112V15.1875H5.8972V33.6343ZM12.3145 9.171C12.325 9.65168 12.2395 10.1296 12.0629 10.5768C11.8862 11.024 11.6221 11.4314 11.2859 11.7751C10.9496 12.1188 10.5482 12.3918 10.105 12.5783C9.66182 12.7647 9.18587 12.8607 8.70508 12.8607C8.22428 12.8607 7.74833 12.7647 7.30516 12.5783C6.86198 12.3918 6.46051 12.1188 6.1243 11.7751C5.78809 11.4314 5.52392 11.024 5.34728 10.5768C5.17065 10.1296 5.08512 9.65168 5.0957 9.171C5.11648 8.2275 5.50588 7.32964 6.1805 6.6697C6.85513 6.00977 7.76134 5.64023 8.70508 5.64023C9.64881 5.64023 10.555 6.00977 11.2297 6.6697C11.9043 7.32964 12.2937 8.2275 12.3145 9.171Z" fill="#001438"/>
</svg>
