<svg width="16" height="16" viewBox="0 0 16 16" fill="none" xmlns="http://www.w3.org/2000/svg">
<g clip-path="url(#clip0_299_1456)">
<path fill-rule="evenodd" clip-rule="evenodd" d="M0.666504 1.89202C0.666504 1.56704 0.795601 1.25538 1.0254 1.02558C1.25519 0.795786 1.56686 0.666689 1.89184 0.666689H14.1065C14.2676 0.666426 14.4271 0.697931 14.5759 0.7594C14.7248 0.820869 14.8601 0.911095 14.974 1.02491C15.0879 1.13873 15.1783 1.2739 15.24 1.4227C15.3016 1.57149 15.3333 1.73097 15.3332 1.89202V14.1067C15.3333 14.2678 15.3018 14.4273 15.2402 14.5762C15.1787 14.725 15.0884 14.8603 14.9745 14.9742C14.8606 15.0882 14.7254 15.1785 14.5766 15.2401C14.4278 15.3018 14.2683 15.3334 14.1072 15.3334H1.89184C1.73087 15.3334 1.57148 15.3016 1.42277 15.24C1.27406 15.1784 1.13895 15.0881 1.02516 14.9742C0.911369 14.8604 0.821125 14.7252 0.759586 14.5765C0.698046 14.4277 0.666417 14.2683 0.666504 14.1074V1.89202ZM6.47184 6.25869H8.45784V7.25602C8.7445 6.68269 9.47784 6.16669 10.5798 6.16669C12.6925 6.16669 13.1932 7.30869 13.1932 9.40402V13.2854H11.0552V9.88136C11.0552 8.68802 10.7685 8.01469 10.0405 8.01469C9.0305 8.01469 8.6105 8.74069 8.6105 9.88136V13.2854H6.47184V6.25869ZM2.80517 13.194H4.94384V6.16669H2.80517V13.194ZM5.24984 3.87469C5.25387 4.0578 5.22129 4.23988 5.154 4.41023C5.08671 4.58058 4.98607 4.73578 4.85799 4.86671C4.72991 4.99764 4.57697 5.10167 4.40814 5.17269C4.23931 5.24372 4.058 5.2803 3.87484 5.2803C3.69168 5.2803 3.51036 5.24372 3.34153 5.17269C3.17271 5.10167 3.01976 4.99764 2.89168 4.86671C2.7636 4.73578 2.66297 4.58058 2.59568 4.41023C2.52839 4.23988 2.49581 4.0578 2.49984 3.87469C2.50775 3.51526 2.65609 3.17322 2.91309 2.92181C3.17009 2.67041 3.51532 2.52963 3.87484 2.52963C4.23436 2.52963 4.57958 2.67041 4.83658 2.92181C5.09358 3.17322 5.24192 3.51526 5.24984 3.87469Z" fill="white"/>
</g>
<defs>
<clipPath id="clip0_299_1456">
<rect width="16" height="16" fill="white"/>
</clipPath>
</defs>
</svg>
