<svg width="120" height="117" viewBox="0 0 120 117" fill="none" xmlns="http://www.w3.org/2000/svg">
<path d="M60 0C26.8621 0 0 26.0327 0 58.1475C0 90.2623 26.8621 116.295 60 116.295C93.1379 116.295 120 90.2623 120 58.1475C120 26.0327 93.1379 0 60 0ZM60 101.289C35.3976 101.289 15.4839 81.995 15.4839 58.1475C15.4839 34.3047 35.3927 15.0058 60 15.0058C84.6024 15.0058 104.516 34.3 104.516 58.1475C104.516 81.9903 84.6073 101.289 60 101.289ZM60 28.1359C42.8976 28.1359 29.0323 41.5731 29.0323 58.1475C29.0323 74.7219 42.8976 88.1591 60 88.1591C77.1024 88.1591 90.9677 74.7219 90.9677 58.1475C90.9677 41.5731 77.1024 28.1359 60 28.1359ZM60 73.1533C51.4621 73.1533 44.5161 66.4218 44.5161 58.1475C44.5161 49.8732 51.4621 43.1417 60 43.1417C68.5379 43.1417 75.4839 49.8732 75.4839 58.1475C75.4839 66.4218 68.5379 73.1533 60 73.1533Z" fill="#001438"/>
</svg>
