<svg width="48" height="48" viewBox="0 0 48 48" fill="none" xmlns="http://www.w3.org/2000/svg">
<path d="M24 0C10.7448 0 0 10.7448 0 24C0 37.2552 10.7448 48 24 48C37.2552 48 48 37.2552 48 24C48 10.7448 37.2552 0 24 0ZM24 41.8064C14.159 41.8064 6.19355 33.8429 6.19355 24C6.19355 14.159 14.1571 6.19355 24 6.19355C33.841 6.19355 41.8064 14.1571 41.8064 24C41.8064 33.841 33.8429 41.8064 24 41.8064ZM24 11.6129C17.159 11.6129 11.6129 17.159 11.6129 24C11.6129 30.841 17.159 36.3871 24 36.3871C30.841 36.3871 36.3871 30.841 36.3871 24C36.3871 17.159 30.841 11.6129 24 11.6129ZM24 30.1935C20.5848 30.1935 17.8065 27.4152 17.8065 24C17.8065 20.5848 20.5848 17.8065 24 17.8065C27.4152 17.8065 30.1935 20.5848 30.1935 24C30.1935 27.4152 27.4152 30.1935 24 30.1935Z" fill="#001438"/>
</svg>
