<svg width="102" height="95" viewBox="0 0 102 95" fill="none" xmlns="http://www.w3.org/2000/svg">
<path d="M50.8235 0C22.7538 0 0 21.1953 0 47.3425C0 73.4896 22.7538 94.6849 50.8235 94.6849C78.8933 94.6849 101.647 73.4896 101.647 47.3425C101.647 21.1953 78.8933 0 50.8235 0ZM50.8235 82.4675C29.9838 82.4675 13.1157 66.7586 13.1157 47.3425C13.1157 27.9301 29.9797 12.2174 50.8235 12.2174C71.6632 12.2174 88.5313 27.9263 88.5313 47.3425C88.5313 66.7548 71.6673 82.4675 50.8235 82.4675ZM50.8235 22.9076C36.3368 22.9076 24.592 33.848 24.592 47.3425C24.592 60.837 36.3368 71.7773 50.8235 71.7773C65.3103 71.7773 77.055 60.837 77.055 47.3425C77.055 33.848 65.3103 22.9076 50.8235 22.9076ZM50.8235 59.5599C43.5914 59.5599 37.7078 54.0792 37.7078 47.3425C37.7078 40.6057 43.5914 35.1251 50.8235 35.1251C58.0556 35.1251 63.9393 40.6057 63.9393 47.3425C63.9393 54.0792 58.0556 59.5599 50.8235 59.5599Z" fill="#FFB277"/>
</svg>
