<svg width="64" height="64" viewBox="0 0 64 64" fill="none" xmlns="http://www.w3.org/2000/svg">
<path d="M21.3335 16.0001V10.6667C21.3335 9.20008 21.8562 7.94408 22.9015 6.89874C23.9468 5.85341 25.2019 5.33163 26.6668 5.33341H37.3335C38.8002 5.33341 40.0562 5.85608 41.1015 6.90141C42.1468 7.94674 42.6686 9.20185 42.6668 10.6667V16.0001H53.3335C54.8002 16.0001 56.0562 16.5227 57.1015 17.5681C58.1468 18.6134 58.6686 19.8685 58.6668 21.3334V34.6667H40.0002V29.3334H24.0002V34.6667H5.3335V21.3334C5.3335 19.8667 5.85617 18.6107 6.9015 17.5654C7.94683 16.5201 9.20195 15.9983 10.6668 16.0001H21.3335ZM26.6668 16.0001H37.3335V10.6667H26.6668V16.0001ZM29.3335 40.0001V34.6667H34.6668V40.0001H29.3335ZM5.3335 40.0001H24.0002V45.3334H40.0002V40.0001H58.6668V50.6667C58.6668 52.1334 58.1442 53.3894 57.0988 54.4347C56.0535 55.4801 54.7984 56.0019 53.3335 56.0001H10.6668C9.20017 56.0001 7.94417 55.4774 6.89883 54.4321C5.8535 53.3867 5.33172 52.1316 5.3335 50.6667V40.0001Z" fill="white"/>
</svg>
