<svg width="128" height="128" viewBox="0 0 128 128" fill="none" xmlns="http://www.w3.org/2000/svg">
<path d="M117.471 33.6164H121.842C123.476 33.6164 125.042 34.2464 126.196 35.3678C127.351 36.4892 128 38.0102 128 39.5961V81.4542C128 83.0401 127.351 84.5611 126.196 85.6825C125.042 86.8039 123.476 87.4339 121.842 87.4339H109.527L83.8502 52.5362C82.3568 50.507 80.2474 48.9819 77.8173 48.1745C75.3871 47.3672 72.7578 47.3178 70.2974 48.0335L54.9897 52.4944C52.8602 53.1134 50.598 53.1612 48.4428 52.6327C46.2876 52.1042 44.32 51.0191 42.7484 49.4925L40.9443 47.7405C40.3001 47.1151 39.8069 46.3587 39.5001 45.5258C39.1933 44.6929 39.0806 43.8043 39.1701 42.924C39.2597 42.0438 39.5492 41.1937 40.0178 40.4352C40.4865 39.6767 41.1225 39.0286 41.8802 38.5377L75.1373 17.0107C77.1226 15.7245 79.4499 15.0262 81.8363 15.0007C84.2227 14.9752 86.5653 15.6237 88.5792 16.8672L114.17 32.6835C115.155 33.2913 116.304 33.6148 117.471 33.6164ZM29.639 83.2182L19.6883 91.6735C19.0083 92.2525 18.4679 92.9698 18.1055 93.7745C17.7432 94.5792 17.5679 95.4515 17.592 96.3295C17.6161 97.2074 17.839 98.0694 18.245 98.8542C18.6509 99.6391 19.2299 100.327 19.9408 100.87L51.5907 125.028C52.2865 125.56 53.0922 125.94 53.9529 126.142C54.8135 126.344 55.709 126.364 56.5781 126.199C57.4472 126.034 58.2695 125.69 58.9889 125.188C59.7084 124.687 60.308 124.041 60.747 123.294L65.0819 115.927C66.3728 113.733 66.915 111.199 66.6307 108.687C66.3464 106.176 65.2502 103.816 63.4994 101.947L46.8617 84.169C44.692 81.8507 41.6723 80.4518 38.4517 80.2729C35.231 80.094 32.0667 81.1494 29.639 83.2122V83.2182ZM42.0711 27.6366H17.1576C15.5245 27.6366 13.9583 28.2667 12.8035 29.3881C11.6487 30.5095 11 32.0304 11 33.6164V78.56C11.0003 80.9719 11.7516 83.3273 13.1551 85.3171C13.3044 85.1827 13.4564 85.0512 13.6108 84.9224L23.5553 76.4671C27.804 72.8567 33.3419 71.0094 38.9783 71.3225C44.6147 71.6356 49.8996 74.084 53.6966 78.1414L70.3344 95.9131C73.3964 99.1833 75.3137 103.311 75.8115 107.704C76.3093 112.098 75.3619 116.532 73.1053 120.37L69.0721 127.223C70.8121 127.864 72.679 128.113 74.5326 127.953C76.3861 127.792 78.1781 127.226 79.7739 126.296L106.929 110.474C107.657 110.049 108.287 109.482 108.778 108.81C109.27 108.137 109.613 107.373 109.786 106.565C109.959 105.758 109.958 104.924 109.783 104.117C109.608 103.31 109.263 102.546 108.77 101.875L76.338 57.7505C75.9645 57.2438 75.4373 56.863 74.8301 56.6615C74.2229 56.4599 73.5661 56.4476 72.9513 56.6264L57.6436 61.0813C53.917 62.1669 49.9573 62.2526 46.1846 61.3293C42.4119 60.406 38.967 58.5081 36.2153 55.837L34.4111 54.085C32.8002 52.5214 31.5666 50.6302 30.7993 48.5477C30.032 46.4652 29.7501 44.2433 29.9739 42.0423C30.1978 39.8412 30.9217 37.7157 32.0936 35.8192C33.2656 33.9227 34.8562 32.3023 36.751 31.075L42.0711 27.6366Z" fill="#001438"/>
</svg>
