<svg width="104" height="104" viewBox="0 0 104 104" fill="none" xmlns="http://www.w3.org/2000/svg">
<path d="M93.0005 32.1211H96.7371C98.1329 32.1211 99.4716 32.599 100.459 33.4497C101.446 34.3003 102 35.454 102 36.657V68.4077C102 69.6107 101.446 70.7644 100.459 71.615C99.4716 72.4657 98.1329 72.9435 96.7371 72.9435H86.2114L64.2651 46.4725C62.9887 44.9332 61.1858 43.7764 59.1088 43.164C57.0317 42.5516 54.7845 42.5142 52.6815 43.057L39.598 46.4407C37.778 46.9103 35.8444 46.9466 34.0024 46.5457C32.1604 46.1448 30.4786 45.3217 29.1354 44.1637L27.5934 42.8348C27.0428 42.3604 26.6213 41.7866 26.3591 41.1548C26.0968 40.5231 26.0005 39.849 26.077 39.1813C26.1536 38.5136 26.401 37.8688 26.8016 37.2935C27.2021 36.7181 27.7458 36.2265 28.3933 35.8541L56.8182 19.5252C58.515 18.5495 60.5042 18.0199 62.5438 18.0005C64.5835 17.9812 66.5857 18.4731 68.307 19.4163L90.1796 31.4136C91.0214 31.8746 92.0031 32.12 93.0005 32.1211ZM17.9307 69.7458L9.42593 76.1594C8.84467 76.5986 8.38278 77.1427 8.07311 77.7531C7.76343 78.3635 7.61357 79.0252 7.63417 79.6911C7.65477 80.3571 7.84532 81.011 8.19229 81.6063C8.53926 82.2016 9.03412 82.7237 9.6417 83.1355L36.6929 101.46C37.2876 101.864 37.9762 102.152 38.7118 102.305C39.4475 102.458 40.2128 102.473 40.9556 102.348C41.6984 102.223 42.4013 101.962 43.0162 101.582C43.6311 101.201 44.1436 100.711 44.5188 100.145L48.2239 94.5567C49.3272 92.8926 49.7906 90.9701 49.5476 89.0649C49.3046 87.1597 48.3677 85.3698 46.8713 83.952L32.651 70.467C30.7966 68.7085 28.2156 67.6474 25.463 67.5117C22.7103 67.376 20.0058 68.1765 17.9307 69.7412V69.7458ZM28.5565 27.5853H7.26288C5.86708 27.5853 4.52844 28.0632 3.54146 28.9138C2.55448 29.7645 2 30.9182 2 32.1211V66.2124C2.00028 68.0419 2.64238 69.8285 3.84201 71.3379C3.96961 71.236 4.09946 71.1362 4.23146 71.0385L12.731 64.6248C16.3624 61.8862 21.0956 60.485 25.9131 60.7225C30.7305 60.96 35.2475 62.8172 38.4928 65.8949L52.7131 79.3753C55.3303 81.8559 56.969 84.9869 57.3944 88.3195C57.8199 91.6521 57.0102 95.0152 55.0814 97.9269L51.6342 103.125C53.1214 103.611 54.7171 103.8 56.3013 103.678C57.8856 103.557 59.4172 103.127 60.7811 102.422L83.9904 90.4201C84.6127 90.0978 85.1509 89.6681 85.5712 89.1579C85.9915 88.6477 86.2848 88.0681 86.4326 87.4555C86.5804 86.8428 86.5795 86.2105 86.43 85.5982C86.2806 84.9859 85.9857 84.4069 85.564 83.8976L57.8444 50.4277C57.5252 50.0433 57.0747 49.7545 56.5557 49.6016C56.0367 49.4487 55.4753 49.4394 54.9498 49.575L41.8663 52.9542C38.6812 53.7777 35.2968 53.8427 32.0723 53.1423C28.8478 52.442 25.9034 51.0024 23.5515 48.9763L22.0095 47.6473C20.6326 46.4613 19.5783 45.0267 18.9225 43.4471C18.2667 41.8674 18.0257 40.1821 18.217 38.5125C18.4083 36.8429 19.0271 35.2307 20.0288 33.7921C21.0304 32.3535 22.3899 31.1244 24.0094 30.1934L28.5565 27.5853Z" fill="#001438"/>
</svg>
