<svg width="90" height="120" viewBox="0 0 90 120" fill="none" xmlns="http://www.w3.org/2000/svg">
<path d="M78.75 15H60C60 6.72656 53.2734 0 45 0C36.7266 0 30 6.72656 30 15H11.25C5.03906 15 0 20.0391 0 26.25V108.75C0 114.961 5.03906 120 11.25 120H78.75C84.9609 120 90 114.961 90 108.75V26.25C90 20.0391 84.9609 15 78.75 15ZM22.5 99.375C19.3828 99.375 16.875 96.8672 16.875 93.75C16.875 90.6328 19.3828 88.125 22.5 88.125C25.6172 88.125 28.125 90.6328 28.125 93.75C28.125 96.8672 25.6172 99.375 22.5 99.375ZM22.5 76.875C19.3828 76.875 16.875 74.3672 16.875 71.25C16.875 68.1328 19.3828 65.625 22.5 65.625C25.6172 65.625 28.125 68.1328 28.125 71.25C28.125 74.3672 25.6172 76.875 22.5 76.875ZM22.5 54.375C19.3828 54.375 16.875 51.8672 16.875 48.75C16.875 45.6328 19.3828 43.125 22.5 43.125C25.6172 43.125 28.125 45.6328 28.125 48.75C28.125 51.8672 25.6172 54.375 22.5 54.375ZM45 9.375C48.1172 9.375 50.625 11.8828 50.625 15C50.625 18.1172 48.1172 20.625 45 20.625C41.8828 20.625 39.375 18.1172 39.375 15C39.375 11.8828 41.8828 9.375 45 9.375ZM75 95.625C75 96.6562 74.1562 97.5 73.125 97.5H39.375C38.3438 97.5 37.5 96.6562 37.5 95.625V91.875C37.5 90.8438 38.3438 90 39.375 90H73.125C74.1562 90 75 90.8438 75 91.875V95.625ZM75 73.125C75 74.1562 74.1562 75 73.125 75H39.375C38.3438 75 37.5 74.1562 37.5 73.125V69.375C37.5 68.3438 38.3438 67.5 39.375 67.5H73.125C74.1562 67.5 75 68.3438 75 69.375V73.125ZM75 50.625C75 51.6562 74.1562 52.5 73.125 52.5H39.375C38.3438 52.5 37.5 51.6562 37.5 50.625V46.875C37.5 45.8438 38.3438 45 39.375 45H73.125C74.1562 45 75 45.8438 75 46.875V50.625Z" fill="#001438"/>
</svg>
