<svg width="48" height="48" viewBox="0 0 48 48" fill="none" xmlns="http://www.w3.org/2000/svg">
<path d="M42 6H32C32 2.69063 28.4125 0 24 0C19.5875 0 16 2.69063 16 6H6C2.6875 6 0 8.01562 0 10.5V43.5C0 45.9844 2.6875 48 6 48H42C45.3125 48 48 45.9844 48 43.5V10.5C48 8.01562 45.3125 6 42 6ZM12 39.75C10.3375 39.75 9 38.7469 9 37.5C9 36.2531 10.3375 35.25 12 35.25C13.6625 35.25 15 36.2531 15 37.5C15 38.7469 13.6625 39.75 12 39.75ZM12 30.75C10.3375 30.75 9 29.7469 9 28.5C9 27.2531 10.3375 26.25 12 26.25C13.6625 26.25 15 27.2531 15 28.5C15 29.7469 13.6625 30.75 12 30.75ZM12 21.75C10.3375 21.75 9 20.7469 9 19.5C9 18.2531 10.3375 17.25 12 17.25C13.6625 17.25 15 18.2531 15 19.5C15 20.7469 13.6625 21.75 12 21.75ZM24 3.75C25.6625 3.75 27 4.75313 27 6C27 7.24687 25.6625 8.25 24 8.25C22.3375 8.25 21 7.24687 21 6C21 4.75313 22.3375 3.75 24 3.75ZM40 38.25C40 38.6625 39.55 39 39 39H21C20.45 39 20 38.6625 20 38.25V36.75C20 36.3375 20.45 36 21 36H39C39.55 36 40 36.3375 40 36.75V38.25ZM40 29.25C40 29.6625 39.55 30 39 30H21C20.45 30 20 29.6625 20 29.25V27.75C20 27.3375 20.45 27 21 27H39C39.55 27 40 27.3375 40 27.75V29.25ZM40 20.25C40 20.6625 39.55 21 39 21H21C20.45 21 20 20.6625 20 20.25V18.75C20 18.3375 20.45 18 21 18H39C39.55 18 40 18.3375 40 18.75V20.25Z" fill="#001438"/>
</svg>
