<svg width="102" height="95" viewBox="0 0 102 95" fill="none" xmlns="http://www.w3.org/2000/svg">
<path d="M88.9412 11.8356H67.7647C67.7647 5.30753 60.1676 0 50.8235 0C41.4794 0 33.8824 5.30753 33.8824 11.8356H12.7059C5.69118 11.8356 0 15.8116 0 20.7123V85.8082C0 90.7089 5.69118 94.6849 12.7059 94.6849H88.9412C95.9559 94.6849 101.647 90.7089 101.647 85.8082V20.7123C101.647 15.8116 95.9559 11.8356 88.9412 11.8356ZM25.4118 78.411C21.8912 78.411 19.0588 76.4322 19.0588 73.9726C19.0588 71.513 21.8912 69.5342 25.4118 69.5342C28.9324 69.5342 31.7647 71.513 31.7647 73.9726C31.7647 76.4322 28.9324 78.411 25.4118 78.411ZM25.4118 60.6575C21.8912 60.6575 19.0588 58.6788 19.0588 56.2192C19.0588 53.7596 21.8912 51.7808 25.4118 51.7808C28.9324 51.7808 31.7647 53.7596 31.7647 56.2192C31.7647 58.6788 28.9324 60.6575 25.4118 60.6575ZM25.4118 42.9041C21.8912 42.9041 19.0588 40.9253 19.0588 38.4658C19.0588 36.0062 21.8912 34.0274 25.4118 34.0274C28.9324 34.0274 31.7647 36.0062 31.7647 38.4658C31.7647 40.9253 28.9324 42.9041 25.4118 42.9041ZM50.8235 7.39726C54.3441 7.39726 57.1765 9.37603 57.1765 11.8356C57.1765 14.2952 54.3441 16.274 50.8235 16.274C47.3029 16.274 44.4706 14.2952 44.4706 11.8356C44.4706 9.37603 47.3029 7.39726 50.8235 7.39726ZM84.7059 75.452C84.7059 76.2658 83.7529 76.9315 82.5882 76.9315H44.4706C43.3059 76.9315 42.3529 76.2658 42.3529 75.452V72.4931C42.3529 71.6795 43.3059 71.0137 44.4706 71.0137H82.5882C83.7529 71.0137 84.7059 71.6795 84.7059 72.4931V75.452ZM84.7059 57.6986C84.7059 58.5123 83.7529 59.1781 82.5882 59.1781H44.4706C43.3059 59.1781 42.3529 58.5123 42.3529 57.6986V54.7397C42.3529 53.926 43.3059 53.2603 44.4706 53.2603H82.5882C83.7529 53.2603 84.7059 53.926 84.7059 54.7397V57.6986ZM84.7059 39.9452C84.7059 40.7589 83.7529 41.4247 82.5882 41.4247H44.4706C43.3059 41.4247 42.3529 40.7589 42.3529 39.9452V36.9863C42.3529 36.1726 43.3059 35.5068 44.4706 35.5068H82.5882C83.7529 35.5068 84.7059 36.1726 84.7059 36.9863V39.9452Z" fill="#FFB277"/>
</svg>
