<svg width="65" height="65" viewBox="0 0 65 65" fill="none" xmlns="http://www.w3.org/2000/svg">
<path d="M15.4605 15.091C15.4497 13.8533 15.931 12.6621 16.7985 11.7793C17.666 10.8966 18.8487 10.3945 20.0863 10.3837C21.3239 10.3729 22.5152 10.8542 23.3979 11.7217C24.2807 12.5892 24.7827 13.7719 24.7935 15.0095C24.8043 16.2471 24.323 17.4384 23.4555 18.3211C22.588 19.2039 21.4054 19.7059 20.1678 19.7167C18.9301 19.7275 17.7389 19.2462 16.8561 18.3787C15.9733 17.5112 15.4713 16.3286 15.4605 15.091ZM20.0572 7.05054C19.0067 7.05971 17.9682 7.2757 17.0012 7.6862C16.0341 8.09669 15.1574 8.69364 14.421 9.44296C13.6847 10.1923 13.1031 11.0793 12.7096 12.0534C12.316 13.0275 12.1182 14.0695 12.1273 15.12C12.1365 16.1706 12.3525 17.209 12.763 18.1761C13.1735 19.1431 13.7704 20.0199 14.5198 20.7562C15.2691 21.4926 16.1561 22.0742 17.1302 22.4677C18.1043 22.8613 19.1463 23.0591 20.1968 23.0499C22.3185 23.0314 24.3459 22.1708 25.833 20.6575C27.3202 19.1442 28.1452 17.1021 28.1267 14.9804C28.1082 12.8588 27.2476 10.8314 25.7343 9.34423C24.221 7.85709 22.1789 7.03202 20.0572 7.05054ZM39.4596 14.8815C39.4488 13.6439 39.9301 12.4527 40.7976 11.5699C41.6651 10.6871 42.8478 10.1851 44.0854 10.1743C45.323 10.1635 46.5143 10.6448 47.397 11.5123C48.2798 12.3798 48.7818 13.5624 48.7926 14.8001C48.8034 16.0377 48.3221 17.2289 47.4546 18.1117C46.5871 18.9945 45.4045 19.4965 44.1668 19.5073C42.9292 19.5181 41.738 19.0368 40.8552 18.1693C39.9724 17.3018 39.4704 16.1192 39.4596 14.8815ZM44.0563 6.8411C43.0058 6.85027 41.9673 7.06627 41.0003 7.47676C40.0332 7.88725 39.1565 8.4842 38.4201 9.23352C37.6838 9.98285 37.1022 10.8699 36.7086 11.8439C36.3151 12.818 36.1173 13.8601 36.1264 14.9106C36.1356 15.9611 36.3516 16.9996 36.7621 17.9666C37.1726 18.9337 37.7695 19.8104 38.5188 20.5468C39.2682 21.2832 40.1552 21.8647 41.1293 22.2583C42.1033 22.6518 43.1454 22.8497 44.1959 22.8405C46.3176 22.822 48.345 21.9614 49.8321 20.4481C51.3193 18.9347 52.1443 16.8926 52.1258 14.771C52.1073 12.6493 51.2467 10.6219 49.7334 9.13479C48.2201 7.64765 46.178 6.82259 44.0563 6.8411ZM5.5941 30.439C5.58884 29.8356 5.70246 29.2371 5.92849 28.6777C6.15453 28.1182 6.48853 27.6088 6.91145 27.1784C7.33436 26.7481 7.8379 26.4052 8.39332 26.1695C8.94873 25.9337 9.54514 25.8097 10.1485 25.8044L22.98 25.6924C22.3909 26.7309 21.9815 27.8615 21.7691 29.0364L10.1776 29.1376C10.012 29.139 9.84823 29.1731 9.69575 29.2378C9.54328 29.3025 9.40505 29.3967 9.28895 29.5148C9.17285 29.6329 9.08116 29.7728 9.01911 29.9264C8.95706 30.08 8.92586 30.2443 8.92731 30.4099L8.9323 30.9819C8.93544 31.3419 8.95879 33.5591 10.3317 35.6432C11.5425 37.4833 13.9962 39.5047 19.2795 39.7012C17.9093 40.3371 16.7704 41.3828 16.0201 42.6938C11.7169 41.8886 9.08807 39.8168 7.54759 37.4769C5.6301 34.5642 5.60369 31.5376 5.59912 31.0136L5.59412 30.4403L5.5941 30.439ZM45.4038 39.4733C46.7849 40.0851 47.9418 41.1107 48.7149 42.4085C53.0033 41.5283 55.5956 39.411 57.095 37.0445C58.9614 34.0987 58.935 31.0722 58.9304 30.5482L58.9254 29.9749C58.9203 29.3714 58.7964 28.7749 58.5607 28.2193C58.325 27.6637 57.9822 27.16 57.5518 26.737C57.1215 26.3139 56.6119 25.9798 56.0524 25.7537C55.4929 25.5276 54.8943 25.4139 54.2908 25.4192L41.4593 25.5311C42.0548 26.5433 42.4913 27.6622 42.7283 28.8535L54.3199 28.7524C55.0159 28.7463 55.5861 29.3067 55.5922 30.0026L55.5972 30.5746C55.6003 30.9346 55.6157 33.1519 54.2794 35.2596C53.1009 37.1207 50.6828 39.1845 45.4038 39.4733ZM32.2255 26.2784C30.9878 26.2892 29.8052 26.7912 28.9377 27.674C28.0702 28.5568 27.5889 29.748 27.5997 30.9856C27.6105 32.2233 28.1125 33.4059 28.9953 34.2734C29.8781 35.1409 31.0693 35.6222 32.3069 35.6114C33.5446 35.6006 34.7272 35.0986 35.5947 34.2158C36.4622 33.333 36.9435 32.1418 36.9327 30.9042C36.9219 29.6666 36.4199 28.4839 35.5371 27.6164C34.6543 26.7489 33.4631 26.2676 32.2255 26.2784ZM24.2665 31.0147C24.248 28.8931 25.0731 26.851 26.5602 25.3376C28.0473 23.8243 30.0747 22.9637 32.1964 22.9452C34.318 22.9267 36.3601 23.7518 37.8735 25.2389C39.3868 26.726 40.2474 28.7534 40.2659 30.8751C40.2844 32.9967 39.4593 35.0389 37.9722 36.5522C36.4851 38.0655 34.4577 38.9261 32.336 38.9446C30.2144 38.9631 28.1723 38.1381 26.6589 36.6509C25.1456 35.1638 24.285 33.1364 24.2665 31.0147ZM17.7333 46.3336C17.7226 45.1151 18.1965 43.9423 19.0506 43.0731C19.9047 42.204 21.0691 41.7097 22.2877 41.6991L42.4309 41.5233C43.6494 41.5126 44.8223 41.9865 45.6914 42.8406C46.5606 43.6947 47.0549 44.8591 47.0655 46.0777L47.0705 46.6523C47.0751 47.1776 47.1015 50.2028 45.2351 53.1486C43.2846 56.2271 39.4876 58.883 32.5105 58.9438C25.5335 59.0047 21.6907 56.4155 19.6868 53.3715C17.7693 50.4588 17.7429 47.4323 17.7383 46.9083L17.7333 46.3336ZM22.3168 45.0323C21.9822 45.0352 21.6626 45.1709 21.4281 45.4095C21.1936 45.6481 21.0636 45.97 21.0665 46.3046L21.0715 46.8765C21.0746 47.2365 21.098 49.4537 22.4709 51.5378C23.76 53.4973 26.459 55.6632 32.4815 55.6106C38.5039 55.5581 41.1647 53.3454 42.4194 51.3637C43.7558 49.256 43.7404 47.0387 43.7373 46.6787L43.7323 46.1068C43.7294 45.7722 43.5937 45.4526 43.3551 45.2181C43.1165 44.9836 42.7945 44.8536 42.46 44.8565L22.3168 45.0323Z" fill="white"/>
</svg>
