<svg width="100" height="86" viewBox="0 0 100 86" fill="none" xmlns="http://www.w3.org/2000/svg">
<path d="M92.1875 0C87.8719 0 84.3751 5.33095 84.3751 11.9048C84.3751 13.2548 84.5548 14.5286 84.825 15.7381L65.7812 40.7262C64.4453 39.1048 62.7781 38.0952 60.9375 38.0952C58.8142 38.0952 56.8938 39.3952 55.4875 41.4905L40.5703 30.1095C40.2798 23.9357 36.9376 19.0476 32.8125 19.0476C28.4985 19.0476 25 24.3786 25 30.9524C25 32.7524 25.2812 34.4405 25.75 35.969L10.5406 62.6929C9.6875 62.2071 8.77656 61.9048 7.8125 61.9048C3.49844 61.9048 0 67.2357 0 73.8095C0 80.3833 3.49844 85.7143 7.8125 85.7143C12.1266 85.7143 15.625 80.3833 15.625 73.8095C15.625 72.2262 15.4125 70.7192 15.0438 69.3381L30.5 42.2667C31.2359 42.6143 32.0016 42.8571 32.8125 42.8571C35.0859 42.8571 37.114 41.3524 38.5421 38.9881L53.1327 50.1357C53.1844 56.6452 56.653 61.9048 60.9375 61.9048C65.2532 61.9048 68.75 56.5738 68.75 50C68.75 49.7881 68.7172 49.5905 68.7094 49.381L89.0312 22.7786C89.9984 23.431 91.0608 23.8095 92.1875 23.8095C96.5032 23.8095 100 18.481 100 11.9048C100 5.33095 96.5031 0 92.1875 0Z" fill="#001438"/>
</svg>
