<svg width="104" height="104" viewBox="0 0 104 104" fill="none" xmlns="http://www.w3.org/2000/svg">
<path d="M89.0693 67.6284C91.1287 63.6503 92.6733 59.1038 92.6733 53.9891C92.6733 39.7814 82.3762 28.4153 69.5049 28.4153C56.6337 28.4153 46.3366 39.7814 46.3366 53.9891C46.3366 68.1967 56.6337 79.5629 69.5049 79.5629C74.1386 79.5629 78.2574 77.8579 81.8614 75.5847L96.7921 92.0656L104 84.1093L89.0693 67.6284ZM69.5049 68.1967C62.297 68.1967 56.6337 61.9454 56.6337 53.9891C56.6337 46.0328 62.297 39.7814 69.5049 39.7814C76.7129 39.7814 82.3762 46.0328 82.3762 53.9891C82.3762 61.9454 76.7129 68.1967 69.5049 68.1967ZM65.3861 90.3607C63.3267 92.6339 61.2673 94.3388 59.2079 96.612L51.4851 104L43.7624 96.612C17.505 70.47 0 52.8525 0 31.2568C0 13.6393 12.3564 0 28.3168 0C37.0693 0 45.8218 4.54645 51.4851 11.9344C57.1485 4.54645 65.901 0 74.6535 0C90.6139 0 102.97 13.6393 102.97 31.2568C102.97 35.235 102.455 38.6448 101.426 42.623C96.7921 27.847 84.4356 17.0492 69.5049 17.0492C50.9703 17.0492 36.0396 33.5301 36.0396 53.9891C36.0396 72.7432 48.9109 88.0874 65.3861 90.3607Z" fill="#001438"/>
</svg>
