<svg width="100" height="86" viewBox="0 0 100 86" fill="none" xmlns="http://www.w3.org/2000/svg">
<path fill-rule="evenodd" clip-rule="evenodd" d="M99.9997 26.1904C100 29.8022 98.4042 33.28 95.5336 35.9239C92.6629 38.5678 88.7305 40.1815 84.5276 40.4404L76.0527 47.7023C78.4277 51.1475 79.4971 55.7189 80.0221 60.8023C80.5555 65.9665 80.5555 72.0046 80.5555 78.4879V80.9522H75V78.5713C75 71.9903 75 66.1546 74.4889 61.2237C74.0417 56.9046 73.225 53.5404 71.8695 51.0975C68.5445 50.7166 65.5084 49.2832 62.9085 47.5166C59.8418 45.4356 57.1141 42.719 54.8697 40.0999C52.7148 37.5629 50.7613 34.9045 49.0225 32.1428C45.2892 34.3571 40.2588 35.7142 34.7227 35.7142C23.2173 35.7142 13.8896 29.8523 13.8896 22.619C13.8896 15.969 21.7729 10.4762 31.9866 9.63569C35.5477 4.02856 45.3754 0 56.9447 0C70.0223 0 80.8777 5.14999 82.9693 11.9071L83.3332 11.9047C87.7534 11.9047 91.9926 13.4098 95.1182 16.0889C98.2437 18.768 99.9997 22.4016 99.9997 26.1904ZM66.7418 27.5547C63.5372 28.2375 60.2467 28.579 56.9447 28.5714C55.7391 28.5714 54.5502 28.5285 53.3891 28.4428L53.178 28.6999C53.478 29.1952 53.8725 29.8357 54.3558 30.5737C55.9437 33.0236 57.714 35.3832 59.6557 37.638V37.2904C62.7251 37.2904 65.9473 35.869 68.6195 34.1761C68.8251 34.0475 69.0251 33.919 69.2167 33.788C67.8334 31.9052 66.9856 29.77 66.7418 27.5547ZM72.925 37.3475C74.339 38.3183 75.9284 39.0847 77.6305 39.6166L70.3528 45.8547C69.0612 45.407 67.7251 44.7118 66.3556 43.7832C65.3736 43.1097 64.443 42.3828 63.5696 41.6071C66.8556 40.8785 69.7639 39.3713 71.9195 38.0094C72.2695 37.788 72.6056 37.5666 72.925 37.3475Z" fill="#001438"/>
<path d="M26.3997 52.3857C28.2414 52.3844 30.0072 51.7561 31.3084 50.6389C32.6097 49.5217 33.3399 48.0072 33.3385 46.4286C33.337 44.8499 32.6039 43.3364 31.3006 42.221C29.9972 41.1056 28.2303 40.4797 26.3886 40.481C24.5468 40.4822 22.7811 41.1106 21.4798 42.2277C20.8354 42.7809 20.3245 43.4374 19.9762 44.1599C19.6279 44.8823 19.449 45.6564 19.4498 46.4381C19.4505 47.2198 19.6308 47.9937 19.9805 48.7156C20.3301 49.4375 20.8423 50.0934 21.4876 50.6457C22.791 51.761 24.5579 52.387 26.3997 52.3857ZM6.95547 61.9095C8.79722 61.9082 10.563 61.2799 11.8642 60.1627C13.1655 59.0455 13.8957 57.531 13.8943 55.9524C13.8928 54.3737 13.1597 52.8602 11.8564 51.7448C10.553 50.6294 8.78611 50.0035 6.94436 50.0047C5.1026 50.006 3.33686 50.6343 2.03558 51.7515C0.734304 52.8687 0.00408168 54.3832 0.00555508 55.9619C0.00702849 57.5405 0.740077 59.0541 2.04344 60.1694C3.3468 61.2848 5.11371 61.9107 6.95547 61.9095ZM61.1159 55.9524C61.1166 56.734 60.9377 57.5082 60.5894 58.2306C60.2411 58.953 59.7302 59.6095 59.0859 60.1627C58.4415 60.7159 57.6764 61.1549 56.8341 61.4546C55.9919 61.7543 55.089 61.9089 54.1771 61.9095C52.3353 61.9107 50.5684 61.2848 49.2651 60.1694C47.9617 59.0541 47.2286 57.5405 47.2272 55.9619C47.2264 55.1802 47.4053 54.4061 47.7537 53.6836C48.102 52.9612 48.6129 52.3047 49.2572 51.7515C50.5585 50.6343 52.3242 50.006 54.166 50.0047C56.0077 50.0035 57.7746 50.6294 59.078 51.7448C60.3814 52.8602 61.1144 54.3737 61.1159 55.9524ZM24.9997 54.7619C26.4731 54.7619 27.8861 55.2636 28.928 56.1566C29.9699 57.0496 30.5552 58.2608 30.5552 59.5238V64.2857H36.1106C37.5841 64.2857 38.9971 64.7874 40.039 65.6804C41.0808 66.5734 41.6661 67.7846 41.6661 69.0476C41.6661 70.3105 41.0808 71.5217 40.039 72.4147C38.9971 73.3078 37.5841 73.8095 36.1106 73.8095H24.9997C23.5263 73.8095 22.1132 73.3078 21.0714 72.4147C20.0295 71.5217 19.4442 70.3105 19.4442 69.0476V59.5238C19.4442 58.2608 20.0295 57.0496 21.0714 56.1566C22.1132 55.2636 23.5263 54.7619 24.9997 54.7619ZM11.111 69.0476C11.111 67.7846 10.5257 66.5734 9.4838 65.6804C8.44195 64.7874 7.02889 64.2857 5.55548 64.2857C4.08208 64.2857 2.66902 64.7874 1.62716 65.6804C0.585308 66.5734 0 67.7846 0 69.0476V80.9523C0 82.2152 0.585308 83.4264 1.62716 84.3195C2.66902 85.2125 4.08208 85.7142 5.55548 85.7142H16.6665C18.1399 85.7142 19.5529 85.2125 20.5948 84.3195C21.6366 83.4264 22.2219 82.2152 22.2219 80.9523C22.2219 79.6894 21.6366 78.4782 20.5948 77.5851C19.5529 76.6921 18.1399 76.1904 16.6665 76.1904H11.111V69.0476ZM55.5548 64.2857C54.0814 64.2857 52.6684 64.7874 51.6265 65.6804C50.5847 66.5734 49.9994 67.7846 49.9994 69.0476V76.1904H44.4439C42.9705 76.1904 41.5574 76.6921 40.5156 77.5851C39.4737 78.4782 38.8884 79.6894 38.8884 80.9523C38.8884 82.2152 39.4737 83.4264 40.5156 84.3195C41.5574 85.2125 42.9705 85.7142 44.4439 85.7142H55.5548C57.0282 85.7142 58.4413 85.2125 59.4832 84.3195C60.525 83.4264 61.1103 82.2152 61.1103 80.9523V69.0476C61.1103 67.7846 60.525 66.5734 59.4832 65.6804C58.4413 64.7874 57.0282 64.2857 55.5548 64.2857Z" fill="#001438"/>
</svg>
