<svg width="100" height="86" viewBox="0 0 100 86" fill="none" xmlns="http://www.w3.org/2000/svg">
<path d="M91.0005 14.1211H94.7371C96.1329 14.1211 97.4716 14.599 98.4585 15.4497C99.4455 16.3003 100 17.454 100 18.657V50.4077C100 51.6107 99.4455 52.7644 98.4585 53.615C97.4716 54.4657 96.1329 54.9435 94.7371 54.9435H84.2114L62.2651 28.4725C60.9887 26.9332 59.1858 25.7764 57.1088 25.164C55.0317 24.5516 52.7845 24.5142 50.6815 25.057L37.598 28.4407C35.778 28.9103 33.8444 28.9466 32.0024 28.5457C30.1604 28.1448 28.4786 27.3217 27.1354 26.1637L25.5934 24.8348C25.0428 24.3604 24.6213 23.7866 24.3591 23.1548C24.0968 22.5231 24.0005 21.849 24.077 21.1813C24.1536 20.5136 24.401 19.8688 24.8016 19.2935C25.2021 18.7181 25.7458 18.2265 26.3933 17.8541L54.8182 1.52516C56.515 0.54955 58.5042 0.0198746 60.5438 0.000548401C62.5835 -0.0187778 64.5857 0.473077 66.307 1.4163L88.1796 13.4136C89.0214 13.8746 90.0031 14.12 91.0005 14.1211ZM15.9307 51.7458L7.42593 58.1594C6.84467 58.5986 6.38278 59.1427 6.07311 59.7531C5.76343 60.3635 5.61357 61.0252 5.63417 61.6911C5.65477 62.3571 5.84532 63.011 6.19229 63.6063C6.53926 64.2016 7.03412 64.7237 7.6417 65.1355L34.6929 83.4603C35.2876 83.8637 35.9762 84.1519 36.7118 84.3051C37.4475 84.4583 38.2128 84.473 38.9556 84.3482C39.6984 84.2233 40.4013 83.9619 41.0162 83.5816C41.6311 83.2014 42.1436 82.7113 42.5188 82.1449L46.2239 76.5567C47.3272 74.8926 47.7906 72.9701 47.5476 71.0649C47.3046 69.1597 46.3677 67.3698 44.8713 65.952L30.651 52.467C28.7966 50.7085 26.2156 49.6474 23.463 49.5117C20.7103 49.376 18.0058 50.1765 15.9307 51.7412V51.7458ZM26.5565 9.58532H5.26288C3.86708 9.58532 2.52844 10.0632 1.54146 10.9138C0.55448 11.7645 0 12.9182 0 14.1211V48.2124C0.000281774 50.0419 0.642378 51.8285 1.84201 53.3379C1.96961 53.236 2.09946 53.1361 2.23146 53.0385L10.731 46.6248C14.3624 43.8862 19.0956 42.485 23.9131 42.7225C28.7305 42.96 33.2475 44.8172 36.4928 47.8949L50.7131 61.3753C53.3303 63.8559 54.969 66.9869 55.3944 70.3195C55.8199 73.6521 55.0102 77.0152 53.0814 79.9269L49.6342 85.1249C51.1214 85.6109 52.7171 85.8002 54.3013 85.6784C55.8856 85.5566 57.4172 85.127 58.7811 84.4219L81.9904 72.4201C82.6127 72.0978 83.1509 71.6681 83.5712 71.1579C83.9915 70.6477 84.2848 70.0681 84.4326 69.4555C84.5804 68.8428 84.5795 68.2105 84.43 67.5982C84.2806 66.9859 83.9857 66.4069 83.564 65.8976L55.8444 32.4277C55.5252 32.0433 55.0747 31.7545 54.5557 31.6016C54.0367 31.4487 53.4753 31.4394 52.9498 31.575L39.8663 34.9542C36.6812 35.7777 33.2968 35.8427 30.0723 35.1423C26.8478 34.442 23.9034 33.0024 21.5515 30.9763L20.0095 29.6473C18.6326 28.4613 17.5783 27.0267 16.9225 25.4471C16.2667 23.8674 16.0257 22.1821 16.217 20.5125C16.4083 18.8429 17.0271 17.2307 18.0288 15.7921C19.0304 14.3535 20.3899 13.1244 22.0094 12.1934L26.5565 9.58532Z" fill="#001438"/>
</svg>
