<svg width="92" height="86" viewBox="0 0 92 86" fill="none" xmlns="http://www.w3.org/2000/svg">
<path d="M7.12278 2.85613C7.12278 2.09864 6.77884 1.37217 6.16663 0.836541C5.55442 0.300913 4.72408 0 3.85827 0C2.99247 0 2.16213 0.300913 1.54992 0.836541C0.937706 1.37217 0.593767 2.09864 0.593767 2.85613C0.593767 8.57982 5.07267 11.5102 8.16743 13.5381L8.42859 13.7094C11.8628 15.9601 13.6518 17.3082 13.6518 19.9929C13.6518 20.7504 13.9957 21.4769 14.608 22.0125C15.2202 22.5481 16.0505 22.849 16.9163 22.849C17.7821 22.849 18.6124 22.5481 19.2247 22.0125C19.8369 21.4769 20.1808 20.7504 20.1808 19.9929C20.1808 14.2692 15.7019 11.3388 12.6072 9.31099L12.346 9.13962C8.91173 6.88899 7.12278 5.54089 7.12278 2.85613ZM26.7098 2.85613C26.7098 2.09864 26.3659 1.37217 25.7537 0.836541C25.1415 0.300913 24.3111 0 23.4453 0C22.5795 0 21.7492 0.300913 21.137 0.836541C20.5248 1.37217 20.1808 2.09864 20.1808 2.85613C20.1808 8.57982 24.6597 11.5102 27.7545 13.5381L28.0156 13.7094C31.4499 15.9601 33.2388 17.3082 33.2388 19.9929C33.2388 20.7504 33.5828 21.4769 34.195 22.0125C34.8072 22.5481 35.6376 22.849 36.5034 22.849C37.3692 22.849 38.1995 22.5481 38.8117 22.0125C39.4239 21.4769 39.7679 20.7504 39.7679 19.9929C39.7679 14.2692 35.289 11.3388 32.1942 9.31099L31.933 9.13962C28.4988 6.88899 26.7098 5.54089 26.7098 2.85613ZM43.0324 0C43.8982 0 44.7285 0.300913 45.3407 0.836541C45.9529 1.37217 46.2969 2.09864 46.2969 2.85613C46.2969 5.54089 48.0858 6.88899 51.5201 9.13962L51.7813 9.31099C54.876 11.3388 59.3549 14.2692 59.3549 19.9929C59.3549 20.7504 59.011 21.4769 58.3988 22.0125C57.7866 22.5481 56.9562 22.849 56.0904 22.849C55.2246 22.849 54.3943 22.5481 53.7821 22.0125C53.1698 21.4769 52.8259 20.7504 52.8259 19.9929C52.8259 17.3082 51.0369 15.9601 47.6027 13.7094L47.3415 13.5381C44.2468 11.5102 39.7679 8.57982 39.7679 2.85613C39.7679 2.09864 40.1118 1.37217 40.724 0.836541C41.3362 0.300913 42.1666 0 43.0324 0ZM0.593767 33.6509C0.593767 30.8462 3.19884 28.5613 6.41112 28.5613H66.5956C69.8079 28.5613 72.413 30.8405 72.413 33.6509V34.2736H75.6775C80.0065 34.2736 84.1582 35.7781 87.2192 38.4563C90.2803 41.1344 92 44.7668 92 48.5542C92 52.3417 90.2803 55.974 87.2192 58.6522C84.1582 61.3303 80.0065 62.8349 75.6775 62.8349H71.0614C68.7043 70.1377 63.4057 76.4474 56.1447 80.598C48.8837 84.7486 40.151 86.4597 31.5602 85.4151C22.9693 84.3705 15.1009 80.6408 9.40872 74.9152C3.71657 69.1896 0.585406 61.8549 0.593767 54.2665V33.6509ZM72.2693 57.1226H75.6775C78.2749 57.1226 80.7659 56.2199 82.6025 54.613C84.4392 53.0061 85.471 50.8267 85.471 48.5542C85.471 46.2817 84.4392 44.1023 82.6025 42.4955C80.7659 40.8886 78.2749 39.9858 75.6775 39.9858H72.413V54.2665C72.413 55.2319 72.3607 56.1801 72.2693 57.1226Z" fill="#001438"/>
</svg>
