<svg width="116" height="114" viewBox="0 0 116 114" fill="none" xmlns="http://www.w3.org/2000/svg">
<path d="M58 0C25.9667 0 0 25.4925 0 56.9408C0 88.3891 25.9667 113.882 58 113.882C90.0333 113.882 116 88.3891 116 56.9408C116 25.4925 90.0333 0 58 0ZM58 99.1872C34.2177 99.1872 14.9677 80.2934 14.9677 56.9408C14.9677 33.5928 34.213 14.6944 58 14.6944C81.7823 14.6944 101.032 33.5882 101.032 56.9408C101.032 80.2888 81.787 99.1872 58 99.1872ZM58 27.552C41.4677 27.552 28.0645 40.7104 28.0645 56.9408C28.0645 73.1712 41.4677 86.3296 58 86.3296C74.5323 86.3296 87.9355 73.1712 87.9355 56.9408C87.9355 40.7104 74.5323 27.552 58 27.552ZM58 71.6352C49.7467 71.6352 43.0323 65.0434 43.0323 56.9408C43.0323 48.8382 49.7467 42.2464 58 42.2464C66.2533 42.2464 72.9678 48.8382 72.9678 56.9408C72.9678 65.0434 66.2533 71.6352 58 71.6352Z" fill="#FFB277"/>
</svg>
