<svg width="418" height="406" viewBox="0 0 418 406" fill="none" xmlns="http://www.w3.org/2000/svg">
<g clip-path="url(#clip0_1208_1458)">
<path d="M41.7407 267.286L28.6238 267.559L21.9654 267.666C19.7359 267.715 17.5065 267.705 15.277 267.725H14.8371V267.286L14.7871 256.385V255.898H15.287L28.5238 255.957C32.9328 255.957 37.3517 256.064 41.7607 256.112H42.0406V256.375C42.0206 258.226 41.9506 260.068 41.9106 261.88L41.7707 267.277L41.7407 267.286ZM41.7407 267.286L41.6007 261.782C41.5507 259.97 41.4907 258.178 41.4707 256.385L41.7407 256.648C37.3317 256.697 32.9128 256.804 28.5038 256.804L15.267 256.863L15.7669 256.375L15.7169 267.277L15.267 266.838C17.4465 266.858 19.626 266.838 21.8154 266.887L28.3939 266.994L41.7507 267.267L41.7407 267.286Z" fill="#EBEBEB"/>
<path d="M26.9733 281.022L13.8565 281.295L7.19805 281.402C4.96858 281.451 2.73911 281.441 0.509646 281.461H0.0597537V281.022L0.00976562 270.121V269.634H0.509646L13.7465 269.692C18.1554 269.692 22.5744 269.8 26.9833 269.848H27.2632V270.111C27.2432 271.962 27.1733 273.804 27.1333 275.616L26.9933 281.012L26.9733 281.022ZM26.9733 281.022L26.8333 275.518C26.7834 273.706 26.7234 271.914 26.7034 270.121L26.9733 270.384C22.5644 270.433 18.1454 270.54 13.7365 270.54L0.499648 270.598L0.999529 270.111L0.949541 281.012L0.499648 280.574C2.67913 280.594 4.85861 280.574 7.04808 280.633L13.6265 280.74L26.9833 281.012L26.9733 281.022Z" fill="#EBEBEB"/>
<path d="M369.301 176.512L356.184 176.785L349.526 176.892C347.296 176.941 345.067 176.931 342.838 176.95H342.398V176.512L342.348 165.611V165.124H342.848L356.084 165.182C360.493 165.182 364.912 165.29 369.321 165.338H369.601V165.601C369.581 167.452 369.511 169.293 369.471 171.105L369.331 176.502L369.301 176.512ZM369.301 176.512L369.161 171.008C369.111 169.196 369.051 167.403 369.031 165.611L369.301 165.874C364.892 165.923 360.473 166.03 356.064 166.03L342.828 166.088L343.327 165.601L343.277 176.502L342.828 176.064C345.007 176.083 347.186 176.064 349.376 176.122L355.954 176.23L369.311 176.502L369.301 176.512Z" fill="#EBEBEB"/>
<path d="M354.536 190.258L341.419 190.531L334.76 190.638C332.531 190.686 330.301 190.677 328.072 190.686H327.632V190.248L327.582 179.347V178.86H328.082L341.319 178.918C345.728 178.918 350.147 179.025 354.556 179.074H354.836V179.337C354.816 181.188 354.746 183.029 354.706 184.841L354.566 190.238L354.536 190.258ZM354.536 190.258L354.396 184.754C354.346 182.942 354.286 181.149 354.266 179.357L354.536 179.62C350.127 179.668 345.708 179.776 341.299 179.776L328.062 179.834L328.562 179.347L328.512 190.248L328.062 189.81C330.241 189.829 332.421 189.81 334.61 189.868L341.189 189.975L354.546 190.248L354.536 190.258Z" fill="#EBEBEB"/>
<path d="M117.082 103.37L103.966 103.643L97.3072 103.75C95.0777 103.799 92.8483 103.789 90.6188 103.799H90.1789V103.361L90.1289 92.4596V91.9725H90.6288L103.866 92.031C108.275 92.031 112.694 92.1381 117.102 92.1868H117.382V92.4499C117.362 94.3008 117.292 96.142 117.252 97.954L117.112 103.351L117.082 103.37ZM117.082 103.37L116.942 97.8663C116.893 96.0544 116.833 94.2619 116.813 92.4694L117.082 92.7324C112.674 92.7811 108.255 92.8883 103.846 92.8883L90.6088 92.9467L91.1087 92.4596L91.0587 103.361L90.6088 102.922C92.7883 102.942 94.9677 102.922 97.1572 102.981L103.736 103.088L117.092 103.361L117.082 103.37Z" fill="#EBEBEB"/>
<path d="M102.315 117.116L89.198 117.389L82.5396 117.496C80.3101 117.545 78.0807 117.535 75.8512 117.555H75.4113V117.116L75.3613 106.215V105.728H75.8612L89.098 105.786C93.507 105.786 97.9259 105.894 102.335 105.942H102.615V106.205C102.595 108.056 102.525 109.898 102.485 111.71L102.345 117.106L102.315 117.116ZM102.315 117.116L102.175 111.612C102.125 109.8 102.065 108.008 102.045 106.215L102.315 106.478C97.9059 106.527 93.487 106.634 89.078 106.634L75.8412 106.692L76.3411 106.205L76.2911 117.106L75.8412 116.668C78.0207 116.688 80.2002 116.668 82.3897 116.717L88.9681 116.824L102.325 117.097L102.315 117.116Z" fill="#EBEBEB"/>
<path d="M339.819 176.512L326.702 176.785L320.044 176.892C317.814 176.941 315.585 176.931 313.355 176.95H312.915V176.512L312.865 165.611V165.124H313.365L326.602 165.182C331.011 165.182 335.43 165.29 339.839 165.338H340.119V165.601C340.099 167.452 340.029 169.293 339.989 171.105L339.849 176.502L339.819 176.512ZM339.819 176.512L339.679 171.008C339.629 169.196 339.569 167.403 339.549 165.611L339.819 165.874C335.41 165.923 330.991 166.03 326.582 166.03L313.345 166.088L313.845 165.601L313.795 176.502L313.345 176.064C315.525 176.083 317.704 176.064 319.894 176.122L326.472 176.23L339.829 176.502L339.819 176.512Z" fill="#EBEBEB"/>
<path d="M417.719 281.022L404.602 281.295L397.944 281.402C395.714 281.451 393.485 281.441 391.256 281.461H390.816V281.022L390.766 270.121V269.634H391.266L404.502 269.692C408.911 269.692 413.33 269.8 417.739 269.848H418.019V270.111C417.999 271.962 417.929 273.804 417.889 275.616L417.749 281.012L417.719 281.022ZM417.719 281.022L417.579 275.518C417.529 273.706 417.469 271.914 417.449 270.121L417.719 270.384C413.31 270.433 408.891 270.54 404.482 270.54L391.246 270.598L391.745 270.111L391.695 281.012L391.246 280.574C393.425 280.594 395.604 280.574 397.794 280.633L404.372 280.74L417.729 281.012L417.719 281.022Z" fill="#EBEBEB"/>
<path d="M402.954 14.4179L389.837 14.6907L383.178 14.7979C380.949 14.8466 378.719 14.8368 376.49 14.8466H376.05V14.4082L376 3.50711V3.02002H376.5L389.737 3.07847C394.146 3.07847 398.565 3.18563 402.974 3.23434H403.253V3.49737C403.233 5.34831 403.164 7.18952 403.124 9.00149L402.984 14.3985L402.954 14.4179ZM402.954 14.4179L402.814 8.91382C402.764 7.10184 402.704 5.30935 402.684 3.51685L402.954 3.77988C398.545 3.82859 394.126 3.93575 389.717 3.93575L376.48 3.9942L376.98 3.50711L376.93 14.4082L376.48 13.9698C378.659 13.9893 380.839 13.9698 383.028 14.0283L389.607 14.1354L402.964 14.4082L402.954 14.4179Z" fill="#EBEBEB"/>
<path d="M417.719 28.1637L404.602 28.4364L397.944 28.5436C395.714 28.5923 393.485 28.5826 391.256 28.5923H390.816V28.1539L390.766 17.2528V16.7657H391.266L404.502 16.8242C408.911 16.8242 413.33 16.9314 417.739 16.9801H418.019V17.2431C417.999 19.094 417.929 20.9352 417.889 22.7472L417.749 28.1442L417.719 28.1637ZM417.719 28.1637L417.579 22.6595C417.529 20.8476 417.469 19.0551 417.449 17.2626L417.719 17.5256C413.31 17.5743 408.891 17.6815 404.482 17.6815L391.246 17.7399L391.745 17.2528L391.695 28.1539L391.246 27.7156C393.425 27.735 395.604 27.7156 397.794 27.7643L404.372 27.8714L417.729 28.1442L417.719 28.1637Z" fill="#EBEBEB"/>
<path d="M41.7407 14.4179L28.6238 14.6907L21.9654 14.7979C19.7359 14.8466 17.5065 14.8368 15.277 14.8466H14.8371V14.4082L14.7871 3.50711V3.02002H15.287L28.5238 3.07847C32.9328 3.07847 37.3517 3.18563 41.7607 3.23434H42.0406V3.49737C42.0206 5.34831 41.9506 7.18952 41.9106 9.00149L41.7707 14.3985L41.7407 14.4179ZM41.7407 14.4179L41.6007 8.91382C41.5507 7.10184 41.4907 5.30935 41.4707 3.51685L41.7407 3.77988C37.3317 3.82859 32.9128 3.93575 28.5038 3.93575L15.267 3.9942L15.7669 3.50711L15.7169 14.4082L15.267 13.9698C17.4465 13.9893 19.626 13.9698 21.8154 14.0283L28.3939 14.1354L41.7507 14.4082L41.7407 14.4179Z" fill="#EBEBEB"/>
<path d="M0.650391 344.617L52.7679 344.383L104.885 344.295L209.111 344.139L313.346 344.295L365.453 344.383L417.571 344.617L365.453 344.86L313.346 344.948L209.111 345.104L104.885 344.948L52.7679 344.86L0.650391 344.617Z" fill="#263238"/>
<path d="M293.61 0H124.59C115.152 0 107.494 7.58888 107.494 16.9702V355.995C107.494 365.357 115.152 372.965 124.59 372.965H293.61C303.047 372.965 310.726 365.357 310.726 355.995V16.9702C310.726 7.58888 303.047 0 293.61 0ZM300.028 345.513C300.028 354.437 293.17 361.655 284.712 361.655H133.508C125.03 361.655 118.172 354.437 118.172 345.513V29.8197C118.172 11.6415 125.03 10.755 133.508 10.755H163.801C165.56 10.755 167 12.7033 167 15.1193V16.1617C167 21.8217 170.179 21.8412 174.078 21.8412H244.121C248.061 21.8412 251.22 21.8217 251.22 16.1617V15.1193C251.22 12.7033 252.639 10.755 254.429 10.755H284.712C293.17 10.755 300.028 13.1709 300.028 29.8197V345.513Z" fill="#001438"/>
<path d="M300.028 29.8197V345.513C300.028 354.437 293.17 361.655 284.712 361.655H133.508C125.03 361.655 118.172 354.437 118.172 345.513V29.8197C118.172 11.6415 125.03 10.755 133.508 10.755H163.801C165.561 10.755 167 12.7034 167 15.1193V16.1617C167 21.8217 170.179 21.8412 174.079 21.8412H244.122C248.061 21.8412 251.22 21.8217 251.22 16.1617V15.1193C251.22 12.7034 252.64 10.755 254.429 10.755H284.712C293.17 10.755 300.028 13.171 300.028 29.8197Z" fill="#FFB277"/>
<path d="M218.658 14.7686H199.553C198.903 14.7686 198.373 14.2522 198.373 13.619C198.373 12.9858 198.903 12.4695 199.553 12.4695H218.658C219.308 12.4695 219.838 12.9858 219.838 13.619C219.838 14.2522 219.308 14.7686 218.658 14.7686Z" fill="#FFB277"/>
<path d="M96.2461 288.445L98.2156 300.272L111.492 372.43H113.642L103.974 300.272L102.555 288.445H96.2461Z" fill="#DBDBDB"/>
<path d="M102.555 288.445H96.2461L98.2156 300.272H103.974L102.555 288.445Z" fill="#A6A6A6"/>
<path d="M54.5352 372.43H56.6746L69.9615 300.272L71.921 288.445H65.6225L64.1928 300.272L54.5352 372.43Z" fill="#DBDBDB"/>
<path d="M65.623 288.445L64.1934 300.272H69.962L71.9215 288.445H65.623Z" fill="#A6A6A6"/>
<path d="M14.6855 372.43H16.825L30.1119 300.272L32.0714 288.445H25.7729L24.3432 300.272L14.6855 372.43Z" fill="#DBDBDB"/>
<path d="M24.3438 300.272H30.1124L32.0719 288.445H25.7734L24.3438 300.272Z" fill="#A6A6A6"/>
<path d="M18.084 294.008H115.431V283.691H78.9894L66.7423 229.965H21.7931L18.084 294.008Z" fill="#DBDBDB"/>
<path d="M18.084 294.008H23.3827L26.8419 229.965H21.7931L18.084 294.008Z" fill="#A6A6A6"/>
<path d="M169.818 360.593C168.079 361.616 114.572 372.868 112.262 372.001C111.382 371.68 109.303 363.935 107.043 354.505C106.554 352.469 106.064 350.365 105.584 348.221C102.415 334.33 99.3652 319.512 99.3652 319.512L135.137 311.884L140.365 340.808L141.515 347.16C141.515 347.16 163.92 352.069 166.349 353.297C168.769 354.524 171.548 359.58 169.808 360.603L169.818 360.593Z" fill="#FFB277"/>
<path d="M169.999 360.642C168.249 361.675 114.442 372.985 112.113 372.108C111.043 371.709 108.174 360.301 105.395 348.202L140.376 340.74L141.536 347.121C141.536 347.121 164.061 352.06 166.51 353.287C168.949 354.524 171.739 359.61 169.989 360.642H169.999Z" fill="#FF7003"/>
<path d="M168.769 358.635C159.701 360.311 123.29 367.919 114.452 370.267C114.382 370.287 114.392 370.335 114.462 370.326C123.48 368.864 159.831 360.954 168.799 358.781C168.989 358.733 168.959 358.596 168.769 358.635Z" fill="#4A5E84"/>
<path d="M142.396 344.841C138.707 344.919 134.478 346.38 132.298 349.498C132.218 349.614 132.388 349.741 132.488 349.673C135.757 347.822 138.887 346.429 142.476 345.289C142.726 345.211 142.656 344.831 142.396 344.831V344.841Z" fill="#4A5E84"/>
<path d="M145.275 345.854C141.585 345.932 137.356 347.393 135.177 350.511C135.097 350.628 135.267 350.754 135.367 350.686C138.636 348.835 141.755 347.442 145.355 346.302C145.605 346.224 145.535 345.844 145.275 345.844V345.854Z" fill="#4A5E84"/>
<path d="M148.163 346.867C144.474 346.945 140.245 348.406 138.066 351.524C137.986 351.641 138.156 351.767 138.256 351.699C141.525 349.848 144.644 348.455 148.243 347.315C148.493 347.237 148.423 346.857 148.163 346.857V346.867Z" fill="#4A5E84"/>
<path d="M151.044 347.88C147.355 347.958 143.126 349.42 140.947 352.537C140.867 352.654 141.037 352.78 141.136 352.712C144.406 350.861 147.525 349.468 151.124 348.328C151.374 348.251 151.304 347.871 151.044 347.871V347.88Z" fill="#4A5E84"/>
<path d="M147.233 335.206C145.434 333.57 143.024 334.982 141.794 336.551C139.815 339.084 138.375 342.688 138.025 345.874C138.025 345.952 138.075 345.99 138.135 345.981C138.205 346.254 138.505 346.487 138.785 346.312C141.485 344.607 144.594 343.117 146.693 340.623C147.923 339.171 148.923 336.755 147.223 335.206H147.233ZM142.364 342.883C141.055 343.76 139.715 344.558 138.435 345.474C139.175 343.652 139.835 341.821 140.755 340.077C141.195 339.249 141.665 338.402 142.214 337.642C143.074 336.453 146.823 333.521 147.013 337.564C147.113 339.795 143.934 341.84 142.374 342.883H142.364Z" fill="#4A5E84"/>
<path d="M128.818 346.838C132.008 347.481 135.357 346.702 138.526 346.351C138.856 346.312 138.946 345.942 138.836 345.689C138.886 345.65 138.906 345.591 138.856 345.533C136.617 343.253 133.257 341.324 130.148 340.574C128.229 340.116 125.459 340.516 125.059 342.922C124.689 345.201 126.969 346.458 128.828 346.838H128.818ZM126.689 344.627C124.34 341.334 129.088 341.295 130.498 341.685C131.398 341.938 132.288 342.308 133.147 342.688C134.947 343.477 136.597 344.51 138.296 345.474C136.727 345.552 135.177 345.757 133.607 345.893C131.738 346.049 127.979 346.439 126.689 344.627Z" fill="#4A5E84"/>
<path d="M120.61 390.248C118.671 390.793 64.0737 387.958 62.0642 386.526C61.2944 385.99 61.0545 363.945 61.6343 361.821C63.5738 354.641 72.0818 333.005 72.0818 333.005L108.603 334.797L97.1458 363.565L96.6559 369.994C96.6559 369.994 117.071 380.486 119.121 382.289C121.15 384.1 122.56 389.702 120.61 390.248Z" fill="#FFB277"/>
<path d="M120.77 390.335C118.821 390.881 63.9137 388.026 61.8942 386.594C60.9544 385.932 61.0744 374.164 61.4543 361.753L97.1757 363.506L96.6758 369.975C96.6758 369.975 117.211 380.525 119.26 382.337C121.3 384.159 122.71 389.79 120.76 390.335H120.77Z" fill="#FF7003"/>
<path d="M120.101 388.085C110.913 387.383 73.7722 385.406 64.6344 385.416C64.5644 385.416 64.5544 385.464 64.6344 385.474C73.7322 386.37 110.883 388.046 120.101 388.241C120.291 388.241 120.301 388.104 120.101 388.085Z" fill="#4A5E84"/>
<path d="M98.0866 367.978C94.4974 367.111 90.0385 367.442 87.1392 369.887C87.0292 369.985 87.1592 370.14 87.2792 370.111C90.9083 369.166 94.2875 368.611 98.0466 368.436C98.3165 368.426 98.3365 368.036 98.0866 367.978Z" fill="#4A5E84"/>
<path d="M100.616 369.702C97.0267 368.835 92.5678 369.166 89.6685 371.611C89.5585 371.709 89.6885 371.865 89.8085 371.835C93.4376 370.89 96.8168 370.335 100.576 370.16C100.846 370.15 100.866 369.76 100.616 369.702Z" fill="#4A5E84"/>
<path d="M103.155 371.417C99.5658 370.55 95.1069 370.881 92.2075 373.326C92.0976 373.423 92.2275 373.579 92.3475 373.55C95.9766 372.605 99.3558 372.05 103.115 371.874C103.385 371.865 103.415 371.475 103.155 371.417Z" fill="#4A5E84"/>
<path d="M105.684 373.141C102.095 372.274 97.6362 372.605 94.7368 375.05C94.6269 375.148 94.7568 375.304 94.8768 375.274C98.5059 374.329 101.885 373.774 105.644 373.599C105.904 373.589 105.934 373.199 105.684 373.141Z" fill="#4A5E84"/>
<path d="M105.206 359.902C103.886 357.856 101.187 358.606 99.6074 359.804C97.048 361.743 94.7485 364.87 93.5988 367.861C93.5688 367.939 93.6188 367.978 93.6788 367.997C93.6788 368.28 93.9087 368.582 94.2187 368.484C97.2679 367.53 100.647 366.877 103.306 365.006C104.866 363.915 106.446 361.84 105.196 359.902H105.206ZM98.5576 366.078C97.068 366.585 95.5683 367.013 94.0987 367.578C95.2784 366.01 96.3781 364.402 97.7078 362.951C98.3477 362.259 99.0075 361.568 99.7373 360.964C100.867 360.038 105.236 358.158 104.396 362.123C103.926 364.305 100.337 365.474 98.5576 366.078Z" fill="#4A5E84"/>
<path d="M84.4503 366.429C87.3696 367.861 90.8088 367.978 93.9581 368.455C94.288 368.504 94.4679 368.163 94.418 367.89C94.4779 367.871 94.5179 367.812 94.4779 367.744C92.8883 364.967 90.129 362.24 87.3097 360.72C85.5701 359.785 82.7907 359.454 81.801 361.684C80.8612 363.789 82.7508 365.601 84.4503 366.429ZM82.9507 363.75C81.511 359.96 86.1199 361.139 87.3796 361.889C88.1895 362.366 88.9493 362.951 89.6891 363.535C91.2287 364.763 92.5684 366.175 93.9681 367.549C92.4284 367.218 90.8788 367.023 89.3292 366.76C87.4796 366.438 83.7505 365.844 82.9607 363.759L82.9507 363.75Z" fill="#4A5E84"/>
<path d="M36.8205 279.522C47.6979 291.709 84.2592 282.084 86.4487 286.936C88.3782 291.212 61.6146 358.002 61.6146 358.002L100.315 361.548C100.315 361.548 137.816 288.368 125.489 266.449C118.831 254.603 89.5179 259.327 71.8222 257.165C66.4834 256.512 63.974 245.445 63.974 245.445H32.3516C32.3516 245.445 24.3735 265.601 36.8105 279.532L36.8205 279.522Z" fill="#B1C1E0"/>
<path d="M114.402 259.649L80.8795 285.455C69.7422 285.221 45.378 289.098 36.8301 279.522C24.3931 265.591 32.3711 245.435 32.3711 245.435H63.9936C63.9936 245.435 66.503 256.502 71.8317 257.155C84.2487 258.675 102.384 256.804 114.402 259.649Z" fill="#4A5E84"/>
<path d="M102.545 353.979C101.445 353.628 91.0876 352.469 88.8081 352.225C84.2392 351.728 69.8527 350.374 67.2433 350.384C67.1733 350.384 67.1633 350.491 67.2333 350.511C69.5028 350.988 78.6806 352.069 80.96 352.303C85.5389 352.781 101.255 354.31 102.525 354.183C102.635 354.174 102.655 354.018 102.545 353.989V353.979Z" fill="#4A5E84"/>
<path d="M91.6072 282.318C89.0378 281.032 76.1709 281.548 70.7422 281.412C68.0128 281.344 65.2835 281.285 62.5541 281.217C60.1347 281.159 57.7153 281.129 55.3058 280.944C50.7469 280.594 46.198 279.541 42.7189 276.541C39.5896 273.843 37.5801 270.102 36.5003 266.244C35.1607 261.451 35.3006 256.444 35.5306 251.524C35.5906 250.316 35.6705 249.108 35.7505 247.9C35.7505 247.832 35.6306 247.812 35.6206 247.89C34.5608 256.697 33.751 266.526 39.4396 274.154C41.939 277.505 45.4482 279.804 49.6172 280.866C54.2861 282.055 59.2349 281.928 64.0338 282.035C69.4225 282.152 74.8112 282.279 80.1999 282.396C82.8892 282.454 89.6976 282.542 90.8173 283.399C92.147 284.422 84.4589 308.319 82.6093 313.17C78.9102 322.932 75.2711 332.712 71.6519 342.493C71.212 343.672 69.9923 347.091 69.5924 348.28C69.5124 348.504 69.9023 348.66 70.0023 348.436C72.0218 343.623 74.6312 336.512 76.5208 331.65C78.4003 326.809 80.2899 321.967 82.1494 317.125C85.8985 307.345 93.8466 283.419 91.6072 282.298V282.318Z" fill="#4A5E84"/>
<path d="M126.929 268.572C124.81 263.867 120.751 260.779 114.432 259.629C114.322 259.61 114.332 259.766 114.432 259.795C119.941 261.412 123.85 263.575 126.139 268.192C127.159 270.238 127.969 273.57 127.849 277.691C127.569 286.984 124.28 300.438 122.4 306.887C120.511 313.346 118.271 319.678 115.872 325.961C113.462 332.274 107.934 345.347 107.574 346.156C107.544 346.234 107.644 346.283 107.684 346.215C110.193 341.967 117.991 322.98 122.35 309.157C124.41 302.6 131.478 278.665 126.929 268.572Z" fill="#4A5E84"/>
<path d="M141.365 338.967L107.613 346.205C107.613 346.205 134.977 273.843 123.779 264.607C120.67 262.045 113.902 261.149 105.864 264.646C93.8564 269.858 79.9497 280.506 66.8428 284.393C54.5658 288.036 39.9993 284.685 34.9805 279.132C24.443 267.471 32.3711 245.426 32.3711 245.426L69.8721 243.789C69.8721 243.789 69.1023 245.474 71.1718 247.325C71.1718 247.325 102.824 240.35 113.922 247.169C133.947 259.473 141.355 338.976 141.355 338.976L141.365 338.967Z" fill="#B1C1E0"/>
<path d="M51.1462 247.978C51.1162 247.89 50.9962 247.92 50.9962 248.007C50.9363 249.663 51.0062 251.281 50.6163 252.907C50.2464 254.456 49.5466 255.84 48.4269 256.98C46.0474 259.405 42.6283 260.233 39.499 261.217C39.329 261.266 39.369 261.558 39.549 261.529C43.0182 260.993 46.6573 260.107 49.1967 257.496C50.3564 256.298 51.1362 254.758 51.4361 253.112C51.7361 251.456 51.6861 249.576 51.1362 247.978H51.1462Z" fill="#4A5E84"/>
<path d="M123.03 263.234C118.381 260.301 111.113 262.532 107.634 263.867C107.564 263.896 107.594 264.013 107.674 263.984C110.873 262.825 118.841 261.071 123.09 264.111C132.928 271.115 117.461 317.106 107.614 345.815C107.474 346.224 107.804 346.117 107.984 345.718C109.403 342.591 123.9 303.935 126.309 285.611C126.759 282.221 129.728 267.462 123.02 263.234H123.03Z" fill="#4A5E84"/>
<path d="M137.217 331.982C136.307 331.962 128.469 333.696 126.739 334.086C123.29 334.865 112.493 337.525 110.623 338.246C110.573 338.265 110.603 338.372 110.653 338.363C112.443 338.187 119.411 336.697 121.131 336.297C124.58 335.489 136.397 332.644 137.257 332.177C137.337 332.138 137.287 331.991 137.197 331.991L137.217 331.982Z" fill="#4A5E84"/>
<path d="M121.55 261.997C118.421 260.272 114.702 259.999 111.222 260.428C107.543 260.886 104.044 262.201 100.675 263.75C93.6066 267.004 86.8682 270.978 79.7899 274.213C72.7516 277.428 65.2334 279.951 57.4752 280.184C50.8468 280.389 42.4488 279.21 38.1799 273.209C31.6114 263.964 35.4405 248.027 35.5105 246.994C35.5105 246.916 35.4105 246.916 35.3905 246.994C30.2917 266.585 36.8502 274.193 41.2791 277.398C44.7983 279.941 49.8471 280.584 53.1763 280.866C60.8944 281.519 68.6326 279.619 75.7809 276.755C83.1091 273.813 89.9875 269.868 97.0158 266.254C103.754 262.786 111.262 259.21 118.951 261.198C119.82 261.422 120.68 261.733 121.51 262.074C121.55 262.094 121.58 262.026 121.54 261.997H121.55Z" fill="#4A5E84"/>
<path d="M72.2015 167.053C77.7302 168.017 80.4695 175.002 81.7192 181.081C82.9689 187.16 82.2591 192.04 86.4281 195.168C86.4281 195.168 82.9989 201.5 69.7621 202.513C58.7747 203.351 52.5662 200.993 52.5662 200.993C52.5662 200.993 50.8066 194.193 50.8066 187.286C50.8066 179.844 52.7362 172.128 57.785 168.631C66.213 162.796 72.2015 167.053 72.2015 167.053Z" fill="#263238"/>
<path d="M72.2014 167.053C73.5411 167.335 74.7608 167.998 75.8105 168.845C76.8703 169.664 77.7601 170.696 78.4799 171.836C79.9296 174.096 80.7494 176.717 81.4292 179.357C82.119 181.997 82.5489 184.705 83.1988 187.394C83.5387 188.738 83.9086 190.082 84.5185 191.349C85.1383 192.596 86.0481 193.755 87.2778 194.398C86.1481 193.599 85.3683 192.45 84.8784 191.183C84.3685 189.936 84.0586 188.602 83.8086 187.257C83.3087 184.569 82.8988 181.841 82.219 179.142C81.5292 176.483 80.6494 173.755 78.9998 171.466C78.19 170.326 77.1902 169.303 76.0405 168.504C74.8808 167.744 73.5711 167.14 72.1914 167.053H72.2014Z" fill="#263238"/>
<path d="M61.3239 166.673C58.3946 167.696 55.8952 169.917 54.0857 172.557C52.2561 175.226 51.1864 178.402 50.6365 181.607C50.1266 184.841 50.1766 188.134 50.5065 191.349C50.8364 194.564 51.3063 197.759 51.9162 200.925L51.4763 196.113C51.3263 194.505 51.1964 192.908 51.1064 191.3C50.9064 188.095 50.8564 184.89 51.4063 181.753C51.8762 178.616 52.9159 175.567 54.5755 172.927C55.3953 171.592 56.3951 170.384 57.5248 169.323C58.6446 168.251 59.9143 167.335 61.3139 166.683L61.3239 166.673Z" fill="#263238"/>
<path d="M61.3849 206.186C64.5042 218.957 72.0723 238.801 78.7607 238.694C84.8593 238.597 98.476 227.715 104.175 224.149C109.913 220.564 97.0864 206.536 93.8171 208.806C88.7484 212.333 81.1702 218.616 79.8905 218.207C78.2909 217.691 76.2613 213.745 67.1635 202.104C63.4444 197.34 60.0652 200.75 61.3949 206.186H61.3849Z" fill="#FFB277"/>
<path d="M99.9462 203.399C102.636 202.445 105.645 201.13 108.624 201.188C111.613 201.246 114.093 205.211 114.093 206.341C114.093 207.472 112.963 214.564 109.984 214.564C106.995 214.564 108.804 209.128 108.684 208.504C108.574 207.881 108.454 207.082 107.894 207.14C107.334 207.199 97.4668 211.904 97.4668 211.904L99.9462 203.409V203.399Z" fill="#FFB277"/>
<path d="M100.135 203.809C100.305 203.809 108.303 200.633 111.292 200.691C114.281 200.75 116.761 204.715 116.761 205.845C116.761 206.984 115.631 214.067 112.652 214.067C109.662 214.067 111.472 208.631 111.352 208.007C111.242 207.384 111.122 206.585 110.562 206.643C110.002 206.702 100.135 211.407 100.135 211.407V203.809Z" fill="#FFB277"/>
<path d="M111.631 213.687C111.262 213.209 111.202 212.498 111.132 211.914C111.062 211.271 111.112 210.628 111.242 209.995C111.351 209.449 111.581 208.904 111.601 208.339C111.621 207.822 111.431 207.199 111.182 206.751C110.952 206.332 110.512 206.478 110.132 206.605C109.572 206.799 109.032 207.082 108.512 207.345C107.942 207.627 107.372 207.929 106.813 208.222C106.233 208.524 105.613 208.806 105.083 209.176C105.043 209.206 105.073 209.274 105.123 209.254C105.643 209.069 106.143 208.806 106.643 208.572C107.212 208.309 107.782 208.037 108.352 207.783C108.882 207.54 109.412 207.277 109.952 207.043C110.142 206.965 110.522 206.76 110.742 206.809C110.972 206.858 111.082 207.423 111.132 207.608C111.292 208.183 111.182 208.67 111.032 209.235C110.882 209.771 110.762 210.326 110.722 210.881C110.682 211.398 110.702 211.943 110.842 212.45C110.982 212.927 111.311 213.317 111.551 213.745C111.581 213.804 111.681 213.745 111.641 213.687H111.631Z" fill="#263238"/>
<path d="M90.668 211.69C90.668 211.69 98.946 204.101 100.666 202.601C104.125 199.581 118.681 193.599 120.711 193.385C122.74 193.171 123.47 197.35 113.592 201.695C108.384 203.984 107.454 206.984 107.554 208.65C107.654 210.316 109.234 213.414 112.013 213.336C114.792 213.258 116.592 209.176 119.151 208.728C121.711 208.27 120.021 212.985 118.211 215.703C116.412 218.421 113.133 220.672 110.733 221.578C108.334 222.484 100.886 225.708 100.886 225.708L90.668 211.699V211.69Z" fill="#FFB277"/>
<path d="M115.463 211.368C114.413 212.187 113.233 213.239 111.854 213.287C110.434 213.346 109.504 212.411 108.844 211.242C108.175 210.063 107.795 208.719 108.115 207.374C108.405 206.156 109.124 205.085 110.024 204.237C111.134 203.185 112.444 202.406 113.793 201.714C113.853 201.685 113.793 201.597 113.733 201.626C112.454 202.201 108.475 203.838 107.675 207.374C107.345 208.816 107.785 210.102 108.445 211.31C109.064 212.42 109.954 213.492 111.304 213.609C112.943 213.745 114.363 212.401 115.543 211.398C115.593 211.349 115.513 211.32 115.463 211.359V211.368Z" fill="#263238"/>
<path d="M63.5835 232.596L79.3198 217.632C79.3198 217.632 75.1008 211.446 69.2322 204.042C63.5435 196.863 59.9444 197.145 60.0944 209.917C60.2443 222.688 63.5835 232.605 63.5835 232.605V232.596Z" fill="#FF7003"/>
<path d="M77.1395 215.314C75.8498 216.288 74.6901 217.467 73.4904 218.548C72.3407 219.581 71.1909 220.613 70.0712 221.675C67.7518 223.896 65.4923 226.156 63.2728 228.465C63.2328 228.504 63.2928 228.572 63.3428 228.543C65.7122 226.429 68.0417 224.296 70.3611 222.123C71.5109 221.042 72.6306 219.931 73.7503 218.821C74.9 217.681 76.1498 216.609 77.2095 215.382C77.2495 215.343 77.1895 215.275 77.1395 215.304V215.314Z" fill="#263238"/>
<path opacity="0.1" d="M60.0945 209.917C60.2344 222.679 63.5836 232.605 63.5836 232.605L79.0799 217.856L62.7238 199.396C60.9743 199.941 60.0145 203.205 60.0945 209.917Z" fill="black"/>
<path d="M76.6407 249.313L29.332 250.092C29.332 250.092 41.7891 211.339 51.6267 200.954C56.1056 196.229 60.4346 196.999 64.0837 200.097C64.9935 200.876 76.2308 215.489 77.1506 220.555C77.9604 225.036 74.3013 229.956 74.3013 229.956L76.6407 249.322V249.313Z" fill="#FF7003"/>
<path opacity="0.1" d="M54.5066 198.616H61.9948C62.4247 198.85 62.8646 199.133 63.2845 199.454H53.2669C53.6768 199.133 54.0867 198.86 54.4966 198.616H54.5066ZM50.1276 202.727H66.2538C66.0238 202.425 65.8139 202.143 65.6039 201.889H50.7975C50.5775 202.152 50.3576 202.425 50.1376 202.727H50.1276ZM47.8682 206.01H68.7032C68.4932 205.728 68.2933 205.435 68.0833 205.172H48.408C48.2281 205.445 48.0481 205.728 47.8682 206.01ZM45.9486 209.283H71.0126C70.8127 209.001 70.6227 208.718 70.4328 208.446H46.4085C46.2486 208.728 46.0986 209.001 45.9386 209.283H45.9486ZM44.2191 212.557H73.1821C73.0122 212.274 72.8222 212.001 72.6423 211.719H44.639C44.499 212.001 44.359 212.264 44.2091 212.557H44.2191ZM42.6194 215.84H75.1516C75.0117 215.567 74.8517 215.294 74.6818 215.002H43.0193C42.8894 215.275 42.7494 215.547 42.6194 215.84ZM41.1198 219.113H76.7313C76.6413 218.85 76.5213 218.577 76.3914 218.275H41.4997C41.3697 218.558 41.2498 218.83 41.1198 219.113ZM39.6801 222.396H77.2611C77.2811 222.113 77.2811 221.841 77.2611 221.558H40.0401C39.9201 221.841 39.8001 222.113 39.6801 222.396ZM38.3005 225.669H76.5413C76.6313 225.396 76.7313 225.124 76.8113 224.831H38.6504C38.5304 225.114 38.4204 225.387 38.3005 225.669ZM36.9808 228.952H74.9517C75.1017 228.709 75.2716 228.426 75.4316 228.114H37.3107C37.2007 228.397 37.0908 228.679 36.9808 228.952ZM35.7011 232.225H74.5818L74.4818 231.388H36.021C35.911 231.67 35.8011 231.943 35.7011 232.225ZM34.4614 235.499H74.9817L74.8817 234.661H34.7813C34.6713 234.943 34.5614 235.226 34.4614 235.499ZM33.2417 238.782H75.3716L75.2716 237.944H33.5516C33.4516 238.226 33.3417 238.509 33.2417 238.782ZM32.072 242.055H75.7715L75.6815 241.217H32.3819C32.2719 241.5 32.1719 241.782 32.082 242.055H32.072ZM30.9222 245.338H76.1614L76.0714 244.5H31.2022C31.1122 244.783 31.0122 245.065 30.9222 245.338ZM29.8125 248.611H76.5613L76.4613 247.773H30.0924C29.9925 248.085 29.8925 248.358 29.8125 248.611Z" fill="#001438"/>
<path d="M67.4634 227.968C65.3839 228.134 63.2844 228.397 61.2348 228.943C60.2151 229.215 59.2153 229.537 58.2056 229.897C57.7057 230.073 57.2058 230.228 56.6959 230.384C56.1761 230.54 55.6262 230.686 55.0863 230.686C55.0363 230.686 55.0363 230.774 55.0863 230.774C55.6062 230.813 56.0961 230.852 56.616 230.803C57.1058 230.764 57.6057 230.657 58.0856 230.53C59.1254 230.267 60.1451 229.946 61.1849 229.673C63.2744 229.118 65.3539 228.563 67.4634 228.192C67.5633 228.173 67.5433 227.978 67.4434 227.978L67.4634 227.968Z" fill="#263238"/>
<path d="M72.4913 230.433C70.8017 230.151 69.0621 229.956 67.3525 229.907C66.4927 229.878 65.6329 229.917 64.7731 229.985C64.3632 230.014 63.9533 230.053 63.5434 230.102C63.0935 230.151 62.6436 230.277 62.1937 230.316C62.1438 230.316 62.1438 230.414 62.1937 230.404C62.6236 230.375 63.0535 230.443 63.4834 230.443C63.9133 230.443 64.3432 230.443 64.7731 230.453C65.6329 230.462 66.4927 230.492 67.3525 230.492C69.0721 230.492 70.7817 230.521 72.5013 230.599C72.5913 230.599 72.5913 230.443 72.5013 230.423L72.4913 230.433Z" fill="#263238"/>
<path d="M56.9671 199.074C56.9971 199.931 59.8764 206.039 63.6455 206.595C64.8752 206.77 66.1449 200.068 66.1449 200.068L66.3549 199.59L69.2342 192.956L62.1459 186.147L61.1062 185.231C61.1062 185.231 60.4363 187.101 59.6265 189.43C59.5865 189.537 59.5465 189.644 59.5065 189.761C59.4565 189.888 59.4066 190.014 59.3666 190.141C59.2366 190.492 59.1166 190.842 58.9967 191.203C58.9067 191.475 58.8167 191.738 58.7267 192.021C58.6367 192.304 58.5468 192.586 58.4568 192.869C57.597 195.713 56.9471 198.704 56.9571 199.064L56.9671 199.074Z" fill="#FFB277"/>
<path d="M59.6272 189.439C60.537 195.343 64.486 198.441 66.3456 199.6L69.2249 192.966L62.1366 186.156L61.0968 185.241C61.0968 185.241 60.427 187.111 59.6172 189.439H59.6272Z" fill="#263238"/>
<path d="M80.1302 184.461C77.6508 196.911 69.9626 196.824 67.2933 196.288C64.8738 195.801 56.6858 193.823 57.8655 181.178C59.0452 168.534 65.5837 165.757 71.1823 166.585C76.781 167.413 82.5996 172.011 80.1302 184.461Z" fill="#FFB277"/>
<path d="M78.8107 181.958C78.5308 181.86 78.2808 181.724 78.0209 181.597C77.721 181.451 77.461 181.373 77.2811 181.071C77.1811 180.906 77.2511 180.643 77.4011 180.535C77.741 180.282 78.1609 180.36 78.5308 180.516C78.9307 180.682 79.2006 180.925 79.4106 181.305C79.6105 181.685 79.1906 182.084 78.8207 181.958H78.8107Z" fill="#263238"/>
<path d="M70.374 180.039C70.6739 180.068 70.9539 180.048 71.2438 180.048C71.5737 180.048 71.8436 180.087 72.1336 179.892C72.2935 179.785 72.3435 179.513 72.2535 179.357C72.0536 178.977 71.6437 178.879 71.2438 178.86C70.8039 178.84 70.464 178.938 70.1141 179.201C69.7741 179.454 69.9841 180 70.374 180.039Z" fill="#263238"/>
<path d="M71.6434 183.516C71.6434 183.516 71.5734 183.546 71.5634 183.575C71.4235 184.432 71.1235 185.377 70.3037 185.513C70.2738 185.513 70.2738 185.562 70.3037 185.562C71.2635 185.621 71.6534 184.344 71.6534 183.516H71.6434Z" fill="#263238"/>
<path d="M71.0737 182.484C69.734 182.114 69.0942 184.822 70.3339 185.173C71.5536 185.513 72.1934 182.796 71.0737 182.484Z" fill="#263238"/>
<path d="M70.5031 182.503C70.2331 182.601 69.9332 182.815 69.6433 182.776C69.3033 182.727 69.1234 182.386 68.9734 182.065C68.9534 182.036 68.9334 182.045 68.9234 182.084C68.7935 182.601 68.8634 183.185 69.4033 183.399C69.8932 183.594 70.3631 183.214 70.623 182.727C70.673 182.64 70.623 182.474 70.5131 182.513L70.5031 182.503Z" fill="#263238"/>
<path d="M76.3308 184.461C76.3308 184.461 76.3908 184.52 76.3808 184.549C76.1509 185.377 76.0209 186.371 76.7107 186.838C76.7307 186.848 76.7107 186.897 76.6907 186.887C75.8009 186.527 75.9809 185.212 76.3408 184.461H76.3308Z" fill="#263238"/>
<path d="M77.2999 183.77C78.6695 184.004 78.1097 186.731 76.84 186.517C75.5903 186.303 76.1501 183.575 77.2999 183.77Z" fill="#263238"/>
<path d="M77.8301 184.072C78.0101 184.257 78.17 184.569 78.43 184.637C78.7199 184.715 78.9998 184.471 79.2498 184.228C79.2798 184.198 79.2898 184.228 79.2898 184.267C79.1998 184.793 78.9099 185.299 78.39 185.299C77.9201 185.299 77.6702 184.783 77.6602 184.228C77.6602 184.13 77.7601 183.994 77.8301 184.072Z" fill="#263238"/>
<path d="M69.9032 190.394C70.0432 190.647 70.1631 190.969 70.4631 191.086C70.743 191.193 71.1129 191.164 71.4128 191.134C71.4428 191.134 71.4628 191.164 71.4328 191.183C71.1229 191.436 70.623 191.505 70.2531 191.329C69.8932 191.154 69.8032 190.774 69.8132 190.404C69.8132 190.355 69.8832 190.355 69.9032 190.384V190.394Z" fill="#263238"/>
<path d="M74.1018 188.154C74.1018 188.154 73.9918 189.449 73.8519 190.043C73.8419 190.102 73.6919 190.092 73.4919 190.063C73.4819 190.063 73.4719 190.063 73.4719 190.063C72.3922 189.985 71.4224 189.391 70.9825 188.387C70.9526 188.319 71.0425 188.28 71.0925 188.329C71.7424 189.079 72.5722 189.43 73.4919 189.654C73.5719 189.498 73.6119 187.423 73.7019 187.433C74.0318 187.481 74.6217 187.842 74.9716 188.046C75.2815 185.348 75.1615 182.62 75.5115 179.941C75.5215 179.844 75.6614 179.844 75.6714 179.941C76.0013 182.786 75.7114 185.903 75.4615 188.699C75.4315 189.05 74.3217 188.329 74.1018 188.173V188.154Z" fill="#263238"/>
<path d="M73.4714 189.751C73.4714 189.751 72.7616 190.453 71.9218 190.618C71.6118 190.677 71.2819 190.677 70.962 190.531C70.3021 190.248 70.3821 189.605 70.5921 189.089C70.762 188.66 71.022 188.309 71.022 188.309C71.022 188.309 71.8818 189.401 73.4714 189.751Z" fill="#263238"/>
<path d="M71.9218 190.628C71.6118 190.686 71.2819 190.686 70.962 190.54C70.3021 190.258 70.3821 189.615 70.5921 189.099C71.3119 189.284 71.9617 189.897 71.9218 190.628Z" fill="#FF9BBC"/>
<path d="M58.5967 182.328C59.9664 182.464 64.0954 179.298 65.2751 172.732C65.2751 172.732 63.8155 178.548 63.2356 179.347C62.6558 180.136 65.5451 177.564 66.5648 172.284C66.5648 172.284 69.1442 174.885 71.5236 175.996C73.9031 177.106 75.4327 177.33 75.6327 177.184C75.8426 177.028 72.3634 175.275 71.5536 173.96C71.5536 173.96 77.6822 178.139 80.7014 178.879C81.0514 178.967 81.4913 171.982 77.2623 168.105C73.0433 164.228 66.1849 166.098 63.8555 167.725C63.8555 167.725 61.4361 167.676 58.3068 170.774C55.1676 173.872 57.1271 182.192 58.5967 182.347V182.328Z" fill="#263238"/>
<path d="M56.9263 185.767C57.1063 185.903 57.2762 186.001 57.4462 186.078C57.6461 186.176 57.8361 186.234 58.0161 186.264C58.296 186.322 58.5559 186.303 58.7759 186.244C58.9858 186.195 59.1758 186.117 59.3357 186.02C59.7556 185.777 59.9956 185.475 59.9956 185.475L60.2655 182.026C60.2655 182.026 58.7159 177.447 56.7364 177.895C54.7368 178.343 55.1267 184.442 56.9263 185.786V185.767Z" fill="#FFB277"/>
<path d="M56.896 179.62C56.896 179.62 56.8461 179.649 56.866 179.668C58.1158 180.662 58.4757 182.192 58.5956 183.711C58.3257 183.059 57.8358 182.61 56.996 182.903C56.956 182.922 56.966 182.99 57.016 182.99C57.6359 183.039 58.0158 183.263 58.2757 183.838C58.4557 184.247 58.5257 184.724 58.6156 185.163C58.6456 185.309 58.8956 185.309 58.8856 185.143C58.8856 185.134 58.8856 185.114 58.8856 185.104C59.4454 183.302 58.7856 180.36 56.896 179.61V179.62Z" fill="#263238"/>
<path d="M57.2467 185.299C57.2167 185.621 57.4566 185.903 57.7765 185.932C58.0965 185.962 58.3864 185.718 58.4064 185.397C58.4364 185.075 58.1964 184.793 57.8765 184.763C57.5566 184.734 57.2667 184.978 57.2467 185.299Z" fill="white"/>
<path d="M56.3356 184.111C56.3156 184.335 56.4855 184.539 56.7155 184.559C56.9454 184.578 57.1454 184.413 57.1654 184.179C57.1854 183.955 57.0154 183.75 56.7855 183.731C56.5555 183.711 56.3556 183.877 56.3356 184.111Z" fill="white"/>
<path d="M50.1373 211.807C52.3468 224.831 60.2749 250.063 67.3632 252.362C75.5612 255.012 105.664 245.396 111.243 241.276C113.462 239.639 101.595 224.753 98.8057 225.698C88.0483 229.361 76.3411 232.148 75.5013 231.709C73.0318 230.443 65.1537 216.259 59.0752 207.91C51.437 197.408 49.1476 205.961 50.1373 211.807Z" fill="#FFB277"/>
<path d="M110.503 241.665C111.773 241.207 120.491 234.846 123.06 231.865C124.7 229.956 127.519 226.663 129.759 221.412C132.348 215.353 133.558 210.92 132.938 208.933C132.218 206.624 132.008 206.254 125.98 216.307C122.57 221.997 119.321 222.64 116.502 222.581C104.945 222.367 96.4766 227.082 96.4766 227.082C96.4766 227.082 105.634 243.409 110.503 241.665Z" fill="#FFB277"/>
<path d="M136.328 203L121.291 222.143C120.882 222.669 120.072 222.854 119.502 222.542L109.284 217.009C108.714 216.697 108.594 216.015 109.004 215.489L124.041 196.346C124.461 195.82 125.26 195.635 125.83 195.947L136.048 201.48C136.618 201.792 136.748 202.474 136.328 203Z" fill="#37474F"/>
<path d="M135.398 201.13L125.18 195.596C124.611 195.285 123.811 195.47 123.391 195.996L108.354 215.138C107.935 215.664 108.064 216.346 108.634 216.658L118.852 222.191C119.422 222.503 120.222 222.318 120.641 221.792L135.678 202.649C136.098 202.123 135.968 201.441 135.398 201.13ZM120.462 220.857C120.062 221.363 119.332 221.548 118.822 221.266L109.684 216.317C109.174 216.035 109.074 215.411 109.474 214.905L123.471 197.077C124.281 196.054 124.73 196.229 125.24 196.502L127.07 197.496C127.18 197.554 127.18 197.71 127.07 197.847L127.02 197.905C126.77 198.227 126.96 198.334 127.2 198.46L131.439 200.75C131.679 200.876 131.869 200.983 132.119 200.662L132.169 200.604C132.279 200.467 132.449 200.399 132.559 200.457L134.388 201.451C134.898 201.724 135.208 202.084 134.468 203.029L120.472 220.857H120.462Z" fill="#263238"/>
<path d="M134.468 203.029L120.472 220.857C120.072 221.363 119.342 221.548 118.832 221.266L109.694 216.317C109.184 216.035 109.084 215.411 109.484 214.905L123.481 197.077C124.291 196.054 124.741 196.229 125.251 196.502L127.08 197.496C127.19 197.554 127.19 197.71 127.08 197.847L127.03 197.905C126.78 198.227 126.97 198.334 127.21 198.46L131.449 200.75C131.689 200.876 131.879 200.983 132.129 200.662L132.179 200.604C132.289 200.467 132.459 200.399 132.569 200.457L134.398 201.451C134.908 201.724 135.218 202.084 134.478 203.029H134.468Z" fill="white"/>
<path d="M126.439 197.72C126.439 197.72 126.419 197.72 126.409 197.72C126.409 197.72 126.399 197.72 126.389 197.72C126.379 197.652 126.339 197.603 126.269 197.564C126.199 197.525 126.129 197.515 126.049 197.535C126.049 197.535 126.049 197.535 126.049 197.525C126.049 197.525 126.049 197.506 126.049 197.496C126.059 197.496 126.069 197.496 126.089 197.496C126.119 197.496 126.139 197.496 126.169 197.496C126.199 197.496 126.229 197.496 126.259 197.515C126.269 197.515 126.289 197.515 126.299 197.525L126.329 197.545C126.329 197.545 126.339 197.545 126.349 197.554C126.369 197.564 126.389 197.584 126.399 197.603C126.409 197.613 126.419 197.632 126.429 197.642C126.429 197.661 126.449 197.671 126.449 197.691C126.449 197.691 126.449 197.71 126.449 197.72H126.439Z" fill="#DBDBDB"/>
<path d="M126.068 197.623C126.068 197.623 126.068 197.593 126.068 197.584C126.118 197.574 126.178 197.584 126.218 197.584C126.288 197.613 126.328 197.661 126.348 197.73C126.328 197.73 126.318 197.73 126.298 197.739C126.298 197.691 126.258 197.661 126.218 197.632C126.178 197.613 126.128 197.603 126.068 197.613V197.623Z" fill="#DBDBDB"/>
<path d="M126.248 197.759C126.248 197.759 126.218 197.759 126.198 197.769C126.198 197.749 126.178 197.73 126.158 197.71C126.138 197.7 126.108 197.691 126.078 197.71C126.078 197.7 126.078 197.681 126.078 197.671C126.158 197.652 126.238 197.691 126.248 197.769V197.759Z" fill="#DBDBDB"/>
<path d="M126.149 197.769C126.149 197.769 126.119 197.788 126.109 197.769C126.099 197.769 126.089 197.749 126.109 197.73C126.129 197.71 126.139 197.71 126.149 197.73C126.159 197.73 126.169 197.749 126.149 197.769Z" fill="#DBDBDB"/>
<path d="M124.68 196.833C124.68 196.833 124.76 196.785 124.8 196.804C124.84 196.824 124.85 196.872 124.82 196.911C124.79 196.95 124.74 196.96 124.69 196.941C124.65 196.921 124.64 196.872 124.67 196.833H124.68Z" fill="#DBDBDB"/>
<path d="M124.91 196.95C124.91 196.95 124.99 196.902 125.03 196.921C125.07 196.941 125.08 196.989 125.05 197.028C125.02 197.067 124.97 197.077 124.93 197.057C124.89 197.038 124.88 196.989 124.91 196.95Z" fill="#DBDBDB"/>
<path d="M125.14 197.077C125.14 197.077 125.22 197.028 125.26 197.048C125.3 197.067 125.31 197.116 125.28 197.155C125.25 197.194 125.2 197.204 125.16 197.184C125.12 197.165 125.11 197.116 125.14 197.077Z" fill="#DBDBDB"/>
<path d="M125.369 197.204C125.369 197.204 125.449 197.155 125.489 197.174C125.529 197.194 125.539 197.243 125.509 197.282C125.479 197.321 125.429 197.33 125.389 197.311C125.349 197.291 125.339 197.243 125.369 197.204Z" fill="#DBDBDB"/>
<path d="M125.599 197.33C125.599 197.33 125.679 197.282 125.719 197.301C125.759 197.32 125.769 197.369 125.739 197.408C125.709 197.447 125.659 197.457 125.619 197.437C125.579 197.418 125.569 197.369 125.599 197.33Z" fill="#DBDBDB"/>
<path d="M134.018 202.094L133.428 201.772L133.628 201.519L134.218 201.841L134.018 202.094ZM133.478 201.763L134.008 202.055L134.158 201.86L133.628 201.568L133.478 201.763Z" fill="#DBDBDB"/>
<path d="M134.018 201.802L133.638 201.597L133.508 201.763L133.888 201.967L134.018 201.802Z" fill="#DBDBDB"/>
<path d="M134.118 202.065L134.068 202.035L134.168 201.899L134.228 201.928L134.118 202.065Z" fill="#DBDBDB"/>
<path d="M130.209 199.512L129.049 198.889C129.049 198.889 128.999 198.821 129.029 198.782C129.029 198.782 129.109 198.733 129.149 198.753L130.309 199.376C130.309 199.376 130.359 199.444 130.329 199.483C130.329 199.483 130.249 199.532 130.209 199.512Z" fill="white"/>
<path d="M118.93 224.081C116.031 223.77 126.149 219.025 126.688 215.733C127.238 212.44 123.899 213.083 121.15 214.642C111.592 220.048 105.004 218.918 99.8048 224.559C94.6061 230.209 118.93 224.072 118.93 224.072V224.081Z" fill="#FFB277"/>
<path d="M110.472 219.016C108.233 219.805 105.963 220.623 103.894 221.753C101.844 222.981 100.295 224.861 98.685 226.566C92.6365 228.397 86.5479 230.121 80.3394 231.349C78.7898 231.573 77.1802 232.118 75.6106 231.758C75.1207 231.524 74.7408 231.154 74.3809 230.784C74.7808 231.105 75.2207 231.397 75.6905 231.583C76.1404 231.719 76.6803 231.583 77.1802 231.514C80.2395 230.891 83.2387 229.995 86.248 229.157L98.2851 225.728L98.0652 225.864C99.3049 224.559 100.605 223.321 102.024 222.201C104.484 220.409 107.563 219.717 110.482 219.025L110.472 219.016Z" fill="#263238"/>
<path d="M52.3169 235.431L68.0532 220.467C68.0532 220.467 64.534 214.067 58.9253 206.458C53.3167 198.85 48.6778 199.98 48.8278 212.752C48.9777 225.523 52.3169 235.44 52.3169 235.44V235.431Z" fill="#FF7003"/>
<path d="M65.8739 218.149C64.5842 219.123 63.4245 220.301 62.2248 221.383C61.075 222.415 59.9253 223.448 58.8056 224.51C56.4861 226.731 54.2267 228.991 52.0072 231.3C51.9672 231.339 52.0272 231.407 52.0772 231.378C54.4466 229.264 56.7761 227.13 59.0955 224.958C60.2452 223.877 61.365 222.766 62.4847 221.656C63.6344 220.516 64.8841 219.444 65.9439 218.217C65.9839 218.178 65.9239 218.11 65.8739 218.139V218.149Z" fill="#263238"/>
<path d="M67.1738 218.392C66.7839 217.7 66.374 217.028 65.9441 216.356C65.8541 216.22 65.7642 216.083 65.6842 215.947C65.3343 215.021 64.9844 214.086 64.5445 213.2C64.5245 213.17 64.4845 213.18 64.4945 213.219C64.7244 213.95 65.0143 214.651 65.3043 215.353C64.6544 214.33 63.9746 213.317 63.2148 212.372C63.1948 212.342 63.1448 212.372 63.1648 212.401C63.9246 213.794 64.7744 215.138 65.5842 216.512C65.9741 217.174 67.9736 220.389 67.9436 220.428C67.9436 220.428 67.5437 220.818 67.4938 220.935C67.4338 221.052 67.4938 221.013 67.5437 220.983C67.5737 220.954 68.3336 220.409 68.3336 220.409C68.3336 220.379 67.5138 218.986 67.1738 218.402V218.392Z" fill="#263238"/>
<path d="M55.987 231.943C54.7673 233.297 53.4976 234.612 52.2179 235.908L52.0679 235.518C50.1284 229.917 49.2886 224.023 48.8887 218.139C50.0984 223.779 51.0482 229.8 52.5678 235.343L52.1379 235.245C53.3976 234.115 54.6773 233.005 55.987 231.943Z" fill="#263238"/>
<path d="M48.498 220.35C49.2079 221.344 49.6078 222.406 49.7877 223.594C48.9779 222.679 48.558 221.548 48.498 220.35Z" fill="#263238"/>
<path d="M229.459 126V116.28H231.787C232.371 116.28 232.831 116.388 233.167 116.604C233.503 116.82 233.739 117.12 233.875 117.504C234.019 117.888 234.091 118.34 234.091 118.86C234.091 119.316 234.015 119.74 233.863 120.132C233.719 120.516 233.475 120.824 233.131 121.056C232.795 121.288 232.351 121.404 231.799 121.404H230.371V126H229.459ZM230.371 120.72H231.535C231.927 120.72 232.243 120.664 232.483 120.552C232.731 120.432 232.911 120.236 233.023 119.964C233.135 119.692 233.191 119.324 233.191 118.86C233.191 118.364 233.143 117.98 233.047 117.708C232.951 117.428 232.783 117.236 232.543 117.132C232.311 117.02 231.979 116.964 231.547 116.964H230.371V120.72ZM235.26 126V116.28H237.456C238.064 116.28 238.54 116.38 238.884 116.58C239.236 116.772 239.488 117.056 239.64 117.432C239.792 117.8 239.868 118.24 239.868 118.752C239.868 119.112 239.828 119.452 239.748 119.772C239.668 120.092 239.532 120.364 239.34 120.588C239.148 120.812 238.876 120.96 238.524 121.032L240.012 126H239.124L237.696 121.224H236.172V126H235.26ZM236.172 120.552H237.408C237.816 120.552 238.132 120.484 238.356 120.348C238.58 120.212 238.74 120.012 238.836 119.748C238.932 119.484 238.98 119.152 238.98 118.752C238.98 118.152 238.876 117.704 238.668 117.408C238.46 117.112 238.048 116.964 237.432 116.964H236.172V120.552ZM243.705 126.12C243.057 126.12 242.549 125.996 242.181 125.748C241.821 125.492 241.565 125.14 241.413 124.692C241.269 124.236 241.197 123.716 241.197 123.132V119.1C241.197 118.508 241.273 117.996 241.425 117.564C241.585 117.124 241.845 116.784 242.205 116.544C242.573 116.304 243.073 116.184 243.705 116.184C244.329 116.184 244.821 116.304 245.181 116.544C245.549 116.784 245.809 117.124 245.961 117.564C246.113 117.996 246.189 118.508 246.189 119.1V123.144C246.189 123.728 246.113 124.244 245.961 124.692C245.817 125.132 245.565 125.48 245.205 125.736C244.845 125.992 244.345 126.12 243.705 126.12ZM243.705 125.388C244.129 125.388 244.453 125.304 244.677 125.136C244.901 124.96 245.053 124.72 245.133 124.416C245.221 124.104 245.265 123.744 245.265 123.336V118.932C245.265 118.524 245.221 118.168 245.133 117.864C245.053 117.56 244.901 117.328 244.677 117.168C244.453 117 244.129 116.916 243.705 116.916C243.273 116.916 242.941 117 242.709 117.168C242.485 117.328 242.329 117.56 242.241 117.864C242.161 118.168 242.121 118.524 242.121 118.932V123.336C242.121 123.744 242.161 124.104 242.241 124.416C242.329 124.72 242.485 124.96 242.709 125.136C242.941 125.304 243.273 125.388 243.705 125.388ZM246.95 126.42V125.736C247.286 125.736 247.55 125.716 247.742 125.676C247.942 125.628 248.09 125.544 248.186 125.424C248.29 125.304 248.358 125.132 248.39 124.908C248.422 124.684 248.438 124.396 248.438 124.044V116.28H249.35V124.092C249.35 124.628 249.302 125.068 249.206 125.412C249.11 125.756 248.922 126.008 248.642 126.168C248.362 126.336 247.946 126.42 247.394 126.42H246.95ZM251.045 126V116.28H254.561V116.988H251.969V120.636H254.081V121.308H251.969V125.316H254.585V126H251.045ZM258.094 126.12C257.438 126.12 256.93 125.984 256.57 125.712C256.218 125.44 255.974 125.076 255.838 124.62C255.702 124.156 255.634 123.644 255.634 123.084V119.22C255.634 118.62 255.702 118.092 255.838 117.636C255.982 117.18 256.234 116.824 256.594 116.568C256.954 116.312 257.454 116.184 258.094 116.184C258.678 116.184 259.134 116.296 259.462 116.52C259.798 116.744 260.038 117.064 260.182 117.48C260.326 117.888 260.398 118.376 260.398 118.944V119.532H259.534V118.968C259.534 118.544 259.498 118.18 259.426 117.876C259.362 117.572 259.226 117.336 259.018 117.168C258.81 117 258.506 116.916 258.106 116.916C257.666 116.916 257.334 117.008 257.11 117.192C256.894 117.368 256.746 117.62 256.666 117.948C256.594 118.276 256.558 118.656 256.558 119.088V123.228C256.558 123.708 256.602 124.108 256.69 124.428C256.786 124.748 256.946 124.988 257.17 125.148C257.394 125.308 257.706 125.388 258.106 125.388C258.514 125.388 258.818 125.3 259.018 125.124C259.226 124.948 259.362 124.704 259.426 124.392C259.498 124.072 259.534 123.7 259.534 123.276V122.64H260.398V123.216C260.398 123.784 260.33 124.288 260.194 124.728C260.066 125.16 259.834 125.5 259.498 125.748C259.17 125.996 258.702 126.12 258.094 126.12ZM263.027 126V116.988H261.191V116.28H265.727V116.988H263.939V126H263.027ZM220.313 144.12C219.657 144.12 219.149 143.984 218.789 143.712C218.437 143.44 218.193 143.076 218.057 142.62C217.921 142.156 217.853 141.644 217.853 141.084V137.22C217.853 136.62 217.921 136.092 218.057 135.636C218.201 135.18 218.453 134.824 218.813 134.568C219.173 134.312 219.673 134.184 220.313 134.184C220.897 134.184 221.353 134.296 221.681 134.52C222.017 134.744 222.257 135.064 222.401 135.48C222.545 135.888 222.617 136.376 222.617 136.944V137.532H221.753V136.968C221.753 136.544 221.717 136.18 221.645 135.876C221.581 135.572 221.445 135.336 221.237 135.168C221.029 135 220.725 134.916 220.325 134.916C219.885 134.916 219.553 135.008 219.329 135.192C219.113 135.368 218.965 135.62 218.885 135.948C218.813 136.276 218.777 136.656 218.777 137.088V141.228C218.777 141.708 218.821 142.108 218.909 142.428C219.005 142.748 219.165 142.988 219.389 143.148C219.613 143.308 219.925 143.388 220.325 143.388C220.733 143.388 221.037 143.3 221.237 143.124C221.445 142.948 221.581 142.704 221.645 142.392C221.717 142.072 221.753 141.7 221.753 141.276V140.64H222.617V141.216C222.617 141.784 222.549 142.288 222.413 142.728C222.285 143.16 222.053 143.5 221.717 143.748C221.389 143.996 220.921 144.12 220.313 144.12ZM226.349 144.12C225.701 144.12 225.193 143.996 224.825 143.748C224.465 143.492 224.209 143.14 224.057 142.692C223.913 142.236 223.841 141.716 223.841 141.132V137.1C223.841 136.508 223.917 135.996 224.069 135.564C224.229 135.124 224.489 134.784 224.849 134.544C225.217 134.304 225.717 134.184 226.349 134.184C226.973 134.184 227.465 134.304 227.825 134.544C228.193 134.784 228.453 135.124 228.605 135.564C228.757 135.996 228.833 136.508 228.833 137.1V141.144C228.833 141.728 228.757 142.244 228.605 142.692C228.461 143.132 228.209 143.48 227.849 143.736C227.489 143.992 226.989 144.12 226.349 144.12ZM226.349 143.388C226.773 143.388 227.097 143.304 227.321 143.136C227.545 142.96 227.697 142.72 227.777 142.416C227.865 142.104 227.909 141.744 227.909 141.336V136.932C227.909 136.524 227.865 136.168 227.777 135.864C227.697 135.56 227.545 135.328 227.321 135.168C227.097 135 226.773 134.916 226.349 134.916C225.917 134.916 225.585 135 225.353 135.168C225.129 135.328 224.973 135.56 224.885 135.864C224.805 136.168 224.765 136.524 224.765 136.932V141.336C224.765 141.744 224.805 142.104 224.885 142.416C224.973 142.72 225.129 142.96 225.353 143.136C225.585 143.304 225.917 143.388 226.349 143.388ZM232.654 144.12C232.006 144.12 231.498 143.996 231.13 143.748C230.77 143.492 230.514 143.14 230.362 142.692C230.218 142.236 230.146 141.716 230.146 141.132V137.1C230.146 136.508 230.222 135.996 230.374 135.564C230.534 135.124 230.794 134.784 231.154 134.544C231.522 134.304 232.022 134.184 232.654 134.184C233.278 134.184 233.77 134.304 234.13 134.544C234.498 134.784 234.758 135.124 234.91 135.564C235.062 135.996 235.138 136.508 235.138 137.1V141.144C235.138 141.728 235.062 142.244 234.91 142.692C234.766 143.132 234.514 143.48 234.154 143.736C233.794 143.992 233.294 144.12 232.654 144.12ZM232.654 143.388C233.078 143.388 233.402 143.304 233.626 143.136C233.85 142.96 234.002 142.72 234.082 142.416C234.17 142.104 234.214 141.744 234.214 141.336V136.932C234.214 136.524 234.17 136.168 234.082 135.864C234.002 135.56 233.85 135.328 233.626 135.168C233.402 135 233.078 134.916 232.654 134.916C232.222 134.916 231.89 135 231.658 135.168C231.434 135.328 231.278 135.56 231.19 135.864C231.11 136.168 231.07 136.524 231.07 136.932V141.336C231.07 141.744 231.11 142.104 231.19 142.416C231.278 142.72 231.434 142.96 231.658 143.136C231.89 143.304 232.222 143.388 232.654 143.388ZM236.655 144V134.28H238.851C239.459 134.28 239.935 134.38 240.279 134.58C240.631 134.772 240.883 135.056 241.035 135.432C241.187 135.8 241.263 136.24 241.263 136.752C241.263 137.112 241.223 137.452 241.143 137.772C241.063 138.092 240.927 138.364 240.735 138.588C240.543 138.812 240.271 138.96 239.919 139.032L241.407 144H240.519L239.091 139.224H237.567V144H236.655ZM237.567 138.552H238.803C239.211 138.552 239.527 138.484 239.751 138.348C239.975 138.212 240.135 138.012 240.231 137.748C240.327 137.484 240.375 137.152 240.375 136.752C240.375 136.152 240.271 135.704 240.063 135.408C239.855 135.112 239.443 134.964 238.827 134.964H237.567V138.552ZM242.795 144V134.28H244.907C245.587 134.28 246.115 134.4 246.491 134.64C246.875 134.872 247.147 135.204 247.307 135.636C247.467 136.068 247.547 136.568 247.547 137.136V141C247.547 141.6 247.467 142.128 247.307 142.584C247.147 143.032 246.883 143.38 246.515 143.628C246.147 143.876 245.639 144 244.991 144H242.795ZM243.707 143.316H244.931C245.443 143.316 245.819 143.212 246.059 143.004C246.299 142.788 246.451 142.496 246.515 142.128C246.579 141.752 246.611 141.328 246.611 140.856V137.232C246.611 136.744 246.567 136.336 246.479 136.008C246.399 135.672 246.235 135.42 245.987 135.252C245.747 135.076 245.383 134.988 244.895 134.988H243.707V143.316ZM249.077 144V134.28H249.989V144H249.077ZM251.713 144V134.28H252.373L255.469 141.828V134.28H256.261V144H255.613L252.505 136.368V144H251.713ZM257.42 144L259.472 134.28H260.432L262.496 144H261.596L261.116 141.396H258.8L258.308 144H257.42ZM258.932 140.736H260.996L259.964 135.492L258.932 140.736ZM264.433 144V134.988H262.597V134.28H267.133V134.988H265.345V144H264.433ZM270.506 144.12C269.858 144.12 269.35 143.996 268.982 143.748C268.622 143.492 268.366 143.14 268.214 142.692C268.07 142.236 267.998 141.716 267.998 141.132V137.1C267.998 136.508 268.074 135.996 268.226 135.564C268.386 135.124 268.646 134.784 269.006 134.544C269.374 134.304 269.874 134.184 270.506 134.184C271.13 134.184 271.622 134.304 271.982 134.544C272.35 134.784 272.61 135.124 272.762 135.564C272.914 135.996 272.99 136.508 272.99 137.1V141.144C272.99 141.728 272.914 142.244 272.762 142.692C272.618 143.132 272.366 143.48 272.006 143.736C271.646 143.992 271.146 144.12 270.506 144.12ZM270.506 143.388C270.93 143.388 271.254 143.304 271.478 143.136C271.702 142.96 271.854 142.72 271.934 142.416C272.022 142.104 272.066 141.744 272.066 141.336V136.932C272.066 136.524 272.022 136.168 271.934 135.864C271.854 135.56 271.702 135.328 271.478 135.168C271.254 135 270.93 134.916 270.506 134.916C270.074 134.916 269.742 135 269.51 135.168C269.286 135.328 269.13 135.56 269.042 135.864C268.962 136.168 268.922 136.524 268.922 136.932V141.336C268.922 141.744 268.962 142.104 269.042 142.416C269.13 142.72 269.286 142.96 269.51 143.136C269.742 143.304 270.074 143.388 270.506 143.388ZM274.506 144V134.28H276.702C277.31 134.28 277.786 134.38 278.13 134.58C278.482 134.772 278.734 135.056 278.886 135.432C279.038 135.8 279.114 136.24 279.114 136.752C279.114 137.112 279.074 137.452 278.994 137.772C278.914 138.092 278.778 138.364 278.586 138.588C278.394 138.812 278.122 138.96 277.77 139.032L279.258 144H278.37L276.942 139.224H275.418V144H274.506ZM275.418 138.552H276.654C277.062 138.552 277.378 138.484 277.602 138.348C277.826 138.212 277.986 138.012 278.082 137.748C278.178 137.484 278.226 137.152 278.226 136.752C278.226 136.152 278.122 135.704 277.914 135.408C277.706 135.112 277.294 134.964 276.678 134.964H275.418V138.552Z" fill="#001438"/>
<path d="M196.961 121.565H196.143C193.934 121.565 191.718 119.43 189.584 118.862C189.179 118.754 188.743 118.696 188.289 118.696C187.835 118.696 187.4 118.754 186.995 118.862C184.86 119.43 182.644 121.565 180.435 121.565H179.617C178.021 121.565 176.727 122.529 176.727 123.718V139.5C176.727 140.688 178.021 141.652 179.617 141.652H196.961C198.557 141.652 199.852 140.688 199.852 139.5V123.718C199.852 122.529 198.557 121.565 196.961 121.565ZM182.508 137.707C181.707 137.707 181.063 137.227 181.063 136.631C181.063 136.034 181.707 135.554 182.508 135.554C183.309 135.554 183.953 136.034 183.953 136.631C183.953 137.227 183.309 137.707 182.508 137.707ZM182.508 133.402C181.707 133.402 181.063 132.923 181.063 132.326C181.063 131.73 181.707 131.25 182.508 131.25C183.309 131.25 183.953 131.73 183.953 132.326C183.953 132.923 183.309 133.402 182.508 133.402ZM182.508 129.098C181.707 129.098 181.063 128.618 181.063 128.022C181.063 127.426 181.707 126.946 182.508 126.946C183.309 126.946 183.953 127.426 183.953 128.022C183.953 128.618 183.309 129.098 182.508 129.098ZM188.289 120.489C189.09 120.489 189.735 120.969 189.735 121.565C189.735 122.162 189.09 122.641 188.289 122.641C187.488 122.641 186.844 122.162 186.844 121.565C186.844 120.969 187.488 120.489 188.289 120.489ZM195.998 136.989C195.998 137.187 195.781 137.348 195.516 137.348H186.844C186.579 137.348 186.362 137.187 186.362 136.989V136.272C186.362 136.075 186.579 135.913 186.844 135.913H195.516C195.781 135.913 195.998 136.075 195.998 136.272V136.989ZM195.998 132.685C195.998 132.882 195.781 133.044 195.516 133.044H186.844C186.579 133.044 186.362 132.882 186.362 132.685V131.968C186.362 131.77 186.579 131.609 186.844 131.609H195.516C195.781 131.609 195.998 131.77 195.998 131.968V132.685ZM195.998 128.381C195.998 128.578 195.781 128.739 195.516 128.739H186.844C186.579 128.739 186.362 128.578 186.362 128.381V127.663C186.362 127.466 186.579 127.304 186.844 127.304H195.516C195.781 127.304 195.998 127.466 195.998 127.663V128.381Z" fill="#001438"/>
<path d="M228.37 270.12C227.714 270.12 227.206 269.984 226.846 269.712C226.494 269.44 226.25 269.076 226.114 268.62C225.978 268.156 225.91 267.644 225.91 267.084V263.22C225.91 262.62 225.978 262.092 226.114 261.636C226.258 261.18 226.51 260.824 226.87 260.568C227.23 260.312 227.73 260.184 228.37 260.184C228.954 260.184 229.41 260.296 229.738 260.52C230.074 260.744 230.314 261.064 230.458 261.48C230.602 261.888 230.674 262.376 230.674 262.944V263.532H229.81V262.968C229.81 262.544 229.774 262.18 229.702 261.876C229.638 261.572 229.502 261.336 229.294 261.168C229.086 261 228.782 260.916 228.382 260.916C227.942 260.916 227.61 261.008 227.386 261.192C227.17 261.368 227.022 261.62 226.942 261.948C226.87 262.276 226.834 262.656 226.834 263.088V267.228C226.834 267.708 226.878 268.108 226.966 268.428C227.062 268.748 227.222 268.988 227.446 269.148C227.67 269.308 227.982 269.388 228.382 269.388C228.79 269.388 229.094 269.3 229.294 269.124C229.502 268.948 229.638 268.704 229.702 268.392C229.774 268.072 229.81 267.7 229.81 267.276V266.64H230.674V267.216C230.674 267.784 230.606 268.288 230.47 268.728C230.342 269.16 230.11 269.5 229.774 269.748C229.446 269.996 228.978 270.12 228.37 270.12ZM232.102 270V260.28H234.298C234.906 260.28 235.382 260.38 235.726 260.58C236.078 260.772 236.33 261.056 236.482 261.432C236.634 261.8 236.71 262.24 236.71 262.752C236.71 263.112 236.67 263.452 236.59 263.772C236.51 264.092 236.374 264.364 236.182 264.588C235.99 264.812 235.718 264.96 235.366 265.032L236.854 270H235.966L234.538 265.224H233.014V270H232.102ZM233.014 264.552H234.25C234.658 264.552 234.974 264.484 235.198 264.348C235.422 264.212 235.582 264.012 235.678 263.748C235.774 263.484 235.822 263.152 235.822 262.752C235.822 262.152 235.718 261.704 235.51 261.408C235.302 261.112 234.89 260.964 234.274 260.964H233.014V264.552ZM238.231 270V260.28H241.747V260.988H239.155V264.636H241.267V265.308H239.155V269.316H241.771V270H238.231ZM242.496 270L244.548 260.28H245.508L247.572 270H246.672L246.192 267.396H243.876L243.384 270H242.496ZM244.008 266.736H246.072L245.04 261.492L244.008 266.736ZM249.509 270V260.988H247.673V260.28H252.209V260.988H250.421V270H249.509ZM253.302 270V260.28H254.214V270H253.302ZM257.654 270L255.374 260.28H256.25L258.086 268.332L259.814 260.28H260.678L258.482 270H257.654ZM261.797 270V260.28H265.313V260.988H262.721V264.636H264.833V265.308H262.721V269.316H265.337V270H261.797ZM218.01 288V278.28H220.122C220.802 278.28 221.33 278.4 221.706 278.64C222.09 278.872 222.362 279.204 222.522 279.636C222.682 280.068 222.762 280.568 222.762 281.136V285C222.762 285.6 222.682 286.128 222.522 286.584C222.362 287.032 222.098 287.38 221.73 287.628C221.362 287.876 220.854 288 220.206 288H218.01ZM218.922 287.316H220.146C220.658 287.316 221.034 287.212 221.274 287.004C221.514 286.788 221.666 286.496 221.73 286.128C221.794 285.752 221.826 285.328 221.826 284.856V281.232C221.826 280.744 221.782 280.336 221.694 280.008C221.614 279.672 221.45 279.42 221.202 279.252C220.962 279.076 220.598 278.988 220.11 278.988H218.922V287.316ZM224.256 288V278.28H227.772V278.988H225.18V282.636H227.292V283.308H225.18V287.316H227.796V288H224.256ZM229.049 288V278.28H231.377C231.961 278.28 232.421 278.388 232.757 278.604C233.093 278.82 233.329 279.12 233.465 279.504C233.609 279.888 233.681 280.34 233.681 280.86C233.681 281.316 233.605 281.74 233.453 282.132C233.309 282.516 233.065 282.824 232.721 283.056C232.385 283.288 231.941 283.404 231.389 283.404H229.961V288H229.049ZM229.961 282.72H231.125C231.517 282.72 231.833 282.664 232.073 282.552C232.321 282.432 232.501 282.236 232.613 281.964C232.725 281.692 232.781 281.324 232.781 280.86C232.781 280.364 232.733 279.98 232.637 279.708C232.541 279.428 232.373 279.236 232.133 279.132C231.901 279.02 231.569 278.964 231.137 278.964H229.961V282.72ZM233.83 288L235.882 278.28H236.842L238.906 288H238.006L237.526 285.396H235.21L234.718 288H233.83ZM235.342 284.736H237.406L236.374 279.492L235.342 284.736ZM240.077 288V278.28H242.273C242.881 278.28 243.357 278.38 243.701 278.58C244.053 278.772 244.305 279.056 244.457 279.432C244.609 279.8 244.685 280.24 244.685 280.752C244.685 281.112 244.645 281.452 244.565 281.772C244.485 282.092 244.349 282.364 244.157 282.588C243.965 282.812 243.693 282.96 243.341 283.032L244.829 288H243.941L242.513 283.224H240.989V288H240.077ZM240.989 282.552H242.225C242.633 282.552 242.949 282.484 243.173 282.348C243.397 282.212 243.557 282.012 243.653 281.748C243.749 281.484 243.797 281.152 243.797 280.752C243.797 280.152 243.693 279.704 243.485 279.408C243.277 279.112 242.865 278.964 242.249 278.964H240.989V282.552ZM247.3 288V278.988H245.464V278.28H250V278.988H248.212V288H247.3ZM250.914 288L251.154 278.28H252.066L253.986 286.716L255.942 278.28H256.854L257.094 288H256.338L256.146 280.26L254.286 288H253.698L251.862 280.272L251.67 288H250.914ZM258.697 288V278.28H262.213V278.988H259.621V282.636H261.733V283.308H259.621V287.316H262.237V288H258.697ZM263.491 288V278.28H264.151L267.247 285.828V278.28H268.039V288H267.391L264.283 280.368V288H263.491ZM270.925 288V278.988H269.089V278.28H273.625V278.988H271.837V288H270.925Z" fill="#001438"/>
<path d="M185.077 262.174C183.905 262.174 182.928 263.051 182.617 264.249C182.604 264.299 182.56 264.326 182.508 264.326C181.091 264.326 179.938 265.613 179.938 267.196C179.938 267.565 179.76 267.926 179.463 268.144C178.588 268.786 178.011 269.888 178.011 271.141C178.011 272.071 177.715 273.061 177.244 273.863C176.917 274.42 176.727 275.086 176.727 275.805C176.727 277.052 177.298 278.152 178.165 278.794C178.466 279.017 178.654 279.376 178.654 279.75C178.654 281.535 179.946 282.978 181.544 282.978C181.82 282.978 182.083 283.128 182.198 283.378C182.677 284.416 183.636 285.131 184.756 285.131C186.354 285.131 187.647 283.687 187.647 281.902V265.044C187.647 263.461 186.495 262.174 185.077 262.174ZM199.852 275.805C199.852 275.086 199.661 274.421 199.334 273.863C198.865 273.063 198.567 272.07 198.567 271.141C198.567 269.888 197.991 268.786 197.116 268.144C196.817 267.925 196.64 267.567 196.64 267.196C196.64 265.613 195.488 264.326 194.071 264.326C194.019 264.326 193.974 264.299 193.961 264.249C193.651 263.051 192.674 262.174 191.501 262.174C190.084 262.174 188.932 263.456 188.932 265.044V281.902C188.932 283.687 190.224 285.131 191.822 285.131C192.942 285.131 193.902 284.416 194.38 283.378C194.496 283.128 194.759 282.978 195.034 282.978C196.632 282.978 197.925 281.535 197.925 279.75C197.925 279.376 198.113 279.017 198.414 278.794C199.281 278.152 199.852 277.052 199.852 275.805Z" fill="#001438"/>
<path d="M226.268 174V164.28H227.192V168.588H230.252V164.28H231.164V174H230.252V169.272H227.192V174H226.268ZM235.242 174.12C234.586 174.12 234.074 174.004 233.706 173.772C233.346 173.532 233.098 173.204 232.962 172.788C232.826 172.364 232.758 171.884 232.758 171.348V164.28H233.646V171.372C233.646 171.748 233.686 172.092 233.766 172.404C233.854 172.708 234.014 172.948 234.246 173.124C234.478 173.3 234.81 173.388 235.242 173.388C235.658 173.388 235.982 173.3 236.214 173.124C236.446 172.94 236.606 172.696 236.694 172.392C236.79 172.088 236.838 171.748 236.838 171.372V164.28H237.714V171.348C237.714 171.884 237.642 172.364 237.498 172.788C237.354 173.204 237.102 173.532 236.742 173.772C236.382 174.004 235.882 174.12 235.242 174.12ZM239.227 174L239.467 164.28H240.379L242.299 172.716L244.255 164.28H245.167L245.407 174H244.651L244.459 166.26L242.599 174H242.011L240.175 166.272L239.983 174H239.227ZM246.494 174L248.546 164.28H249.506L251.57 174H250.67L250.19 171.396H247.874L247.382 174H246.494ZM248.006 170.736H250.07L249.038 165.492L248.006 170.736ZM252.741 174V164.28H253.401L256.497 171.828V164.28H257.289V174H256.641L253.533 166.368V174H252.741ZM218.041 192V182.28H220.237C220.845 182.28 221.321 182.38 221.665 182.58C222.017 182.772 222.269 183.056 222.421 183.432C222.573 183.8 222.649 184.24 222.649 184.752C222.649 185.112 222.609 185.452 222.529 185.772C222.449 186.092 222.313 186.364 222.121 186.588C221.929 186.812 221.657 186.96 221.305 187.032L222.793 192H221.905L220.477 187.224H218.953V192H218.041ZM218.953 186.552H220.189C220.597 186.552 220.913 186.484 221.137 186.348C221.361 186.212 221.521 186.012 221.617 185.748C221.713 185.484 221.761 185.152 221.761 184.752C221.761 184.152 221.657 183.704 221.449 183.408C221.241 183.112 220.829 182.964 220.213 182.964H218.953V186.552ZM224.17 192V182.28H227.686V182.988H225.094V186.636H227.206V187.308H225.094V191.316H227.71V192H224.17ZM231.027 192.12C230.499 192.12 230.059 192.012 229.707 191.796C229.363 191.572 229.103 191.264 228.927 190.872C228.751 190.472 228.643 190.008 228.603 189.48L229.407 189.24C229.447 189.64 229.519 190.004 229.623 190.332C229.727 190.652 229.891 190.908 230.115 191.1C230.339 191.284 230.647 191.376 231.039 191.376C231.471 191.376 231.807 191.264 232.047 191.04C232.287 190.816 232.407 190.46 232.407 189.972C232.407 189.54 232.299 189.168 232.083 188.856C231.875 188.544 231.587 188.216 231.219 187.872L229.503 186.228C229.199 185.932 228.975 185.628 228.831 185.316C228.687 184.996 228.615 184.648 228.615 184.272C228.615 183.6 228.815 183.084 229.215 182.724C229.615 182.364 230.147 182.184 230.811 182.184C231.155 182.184 231.463 182.228 231.735 182.316C232.015 182.404 232.251 182.548 232.443 182.748C232.643 182.94 232.799 183.192 232.911 183.504C233.023 183.816 233.099 184.196 233.139 184.644L232.359 184.848C232.327 184.44 232.259 184.092 232.155 183.804C232.059 183.508 231.903 183.284 231.687 183.132C231.479 182.98 231.187 182.904 230.811 182.904C230.411 182.904 230.083 183.008 229.827 183.216C229.571 183.424 229.443 183.748 229.443 184.188C229.443 184.452 229.491 184.692 229.587 184.908C229.691 185.124 229.871 185.356 230.127 185.604L231.843 187.224C232.227 187.584 232.559 187.984 232.839 188.424C233.119 188.864 233.259 189.36 233.259 189.912C233.259 190.4 233.163 190.808 232.971 191.136C232.787 191.464 232.527 191.712 232.191 191.88C231.855 192.04 231.467 192.12 231.027 192.12ZM236.787 192.12C236.139 192.12 235.631 191.996 235.263 191.748C234.903 191.492 234.647 191.14 234.495 190.692C234.351 190.236 234.279 189.716 234.279 189.132V185.1C234.279 184.508 234.355 183.996 234.507 183.564C234.667 183.124 234.927 182.784 235.287 182.544C235.655 182.304 236.155 182.184 236.787 182.184C237.411 182.184 237.903 182.304 238.263 182.544C238.631 182.784 238.891 183.124 239.043 183.564C239.195 183.996 239.271 184.508 239.271 185.1V189.144C239.271 189.728 239.195 190.244 239.043 190.692C238.899 191.132 238.647 191.48 238.287 191.736C237.927 191.992 237.427 192.12 236.787 192.12ZM236.787 191.388C237.211 191.388 237.535 191.304 237.759 191.136C237.983 190.96 238.135 190.72 238.215 190.416C238.303 190.104 238.347 189.744 238.347 189.336V184.932C238.347 184.524 238.303 184.168 238.215 183.864C238.135 183.56 237.983 183.328 237.759 183.168C237.535 183 237.211 182.916 236.787 182.916C236.355 182.916 236.023 183 235.791 183.168C235.567 183.328 235.411 183.56 235.323 183.864C235.243 184.168 235.203 184.524 235.203 184.932V189.336C235.203 189.744 235.243 190.104 235.323 190.416C235.411 190.72 235.567 190.96 235.791 191.136C236.023 191.304 236.355 191.388 236.787 191.388ZM243.164 192.12C242.508 192.12 241.996 192.004 241.628 191.772C241.268 191.532 241.02 191.204 240.884 190.788C240.748 190.364 240.68 189.884 240.68 189.348V182.28H241.568V189.372C241.568 189.748 241.608 190.092 241.688 190.404C241.776 190.708 241.936 190.948 242.168 191.124C242.4 191.3 242.732 191.388 243.164 191.388C243.58 191.388 243.904 191.3 244.136 191.124C244.368 190.94 244.528 190.696 244.616 190.392C244.712 190.088 244.76 189.748 244.76 189.372V182.28H245.636V189.348C245.636 189.884 245.564 190.364 245.42 190.788C245.276 191.204 245.024 191.532 244.664 191.772C244.304 192.004 243.804 192.12 243.164 192.12ZM247.233 192V182.28H249.429C250.037 182.28 250.513 182.38 250.857 182.58C251.209 182.772 251.461 183.056 251.613 183.432C251.765 183.8 251.841 184.24 251.841 184.752C251.841 185.112 251.801 185.452 251.721 185.772C251.641 186.092 251.505 186.364 251.313 186.588C251.121 186.812 250.849 186.96 250.497 187.032L251.985 192H251.097L249.669 187.224H248.145V192H247.233ZM248.145 186.552H249.381C249.789 186.552 250.105 186.484 250.329 186.348C250.553 186.212 250.713 186.012 250.809 185.748C250.905 185.484 250.953 185.152 250.953 184.752C250.953 184.152 250.849 183.704 250.641 183.408C250.433 183.112 250.021 182.964 249.405 182.964H248.145V186.552ZM255.629 192.12C254.973 192.12 254.465 191.984 254.105 191.712C253.753 191.44 253.509 191.076 253.373 190.62C253.237 190.156 253.169 189.644 253.169 189.084V185.22C253.169 184.62 253.237 184.092 253.373 183.636C253.517 183.18 253.769 182.824 254.129 182.568C254.489 182.312 254.989 182.184 255.629 182.184C256.213 182.184 256.669 182.296 256.997 182.52C257.333 182.744 257.573 183.064 257.717 183.48C257.861 183.888 257.933 184.376 257.933 184.944V185.532H257.069V184.968C257.069 184.544 257.033 184.18 256.961 183.876C256.897 183.572 256.761 183.336 256.553 183.168C256.345 183 256.041 182.916 255.641 182.916C255.201 182.916 254.869 183.008 254.645 183.192C254.429 183.368 254.281 183.62 254.201 183.948C254.129 184.276 254.093 184.656 254.093 185.088V189.228C254.093 189.708 254.137 190.108 254.225 190.428C254.321 190.748 254.481 190.988 254.705 191.148C254.929 191.308 255.241 191.388 255.641 191.388C256.049 191.388 256.353 191.3 256.553 191.124C256.761 190.948 256.897 190.704 256.961 190.392C257.033 190.072 257.069 189.7 257.069 189.276V188.64H257.933V189.216C257.933 189.784 257.865 190.288 257.729 190.728C257.601 191.16 257.369 191.5 257.033 191.748C256.705 191.996 256.237 192.12 255.629 192.12ZM259.35 192V182.28H262.866V182.988H260.274V186.636H262.386V187.308H260.274V191.316H262.89V192H259.35ZM266.207 192.12C265.679 192.12 265.239 192.012 264.887 191.796C264.543 191.572 264.283 191.264 264.107 190.872C263.931 190.472 263.823 190.008 263.783 189.48L264.587 189.24C264.627 189.64 264.699 190.004 264.803 190.332C264.907 190.652 265.071 190.908 265.295 191.1C265.519 191.284 265.827 191.376 266.219 191.376C266.651 191.376 266.987 191.264 267.227 191.04C267.467 190.816 267.587 190.46 267.587 189.972C267.587 189.54 267.479 189.168 267.263 188.856C267.055 188.544 266.767 188.216 266.399 187.872L264.683 186.228C264.379 185.932 264.155 185.628 264.011 185.316C263.867 184.996 263.795 184.648 263.795 184.272C263.795 183.6 263.995 183.084 264.395 182.724C264.795 182.364 265.327 182.184 265.991 182.184C266.335 182.184 266.643 182.228 266.915 182.316C267.195 182.404 267.431 182.548 267.623 182.748C267.823 182.94 267.979 183.192 268.091 183.504C268.203 183.816 268.279 184.196 268.319 184.644L267.539 184.848C267.507 184.44 267.439 184.092 267.335 183.804C267.239 183.508 267.083 183.284 266.867 183.132C266.659 182.98 266.367 182.904 265.991 182.904C265.591 182.904 265.263 183.008 265.007 183.216C264.751 183.424 264.623 183.748 264.623 184.188C264.623 184.452 264.671 184.692 264.767 184.908C264.871 185.124 265.051 185.356 265.307 185.604L267.023 187.224C267.407 187.584 267.739 187.984 268.019 188.424C268.299 188.864 268.439 189.36 268.439 189.912C268.439 190.4 268.343 190.808 268.151 191.136C267.967 191.464 267.707 191.712 267.371 191.88C267.035 192.04 266.647 192.12 266.207 192.12Z" fill="#001438"/>
<path d="M188.289 178C191.939 178 194.897 175.431 194.897 172.261C194.897 169.091 191.939 166.522 188.289 166.522C184.64 166.522 181.682 169.091 181.682 172.261C181.682 175.431 184.64 178 188.289 178ZM194.823 179.688C193.908 179.461 193.051 180.1 192.79 181.006L192.318 182.65C191.88 184.174 189.714 184.157 189.3 182.627L189.269 182.513C189.171 182.152 189.233 181.767 189.438 181.455C190.008 180.588 189.386 179.435 188.349 179.435H188.23C187.192 179.435 186.57 180.588 187.141 181.455C187.346 181.767 187.407 182.152 187.31 182.513L187.279 182.627C186.864 184.157 184.699 184.174 184.261 182.65L183.788 181.006C183.528 180.1 182.671 179.461 181.756 179.688C178.854 180.407 176.727 182.71 176.727 185.461V187.326C176.727 188.514 177.836 189.478 179.204 189.478H197.374C198.742 189.478 199.852 188.514 199.852 187.326V185.461C199.852 182.71 197.725 180.407 194.823 179.688Z" fill="#001438"/>
<path d="M241.337 223V213.28H242.249V223H241.337ZM245.173 223V213.988H243.337V213.28H247.873V213.988H246.085V223H245.173ZM218.01 241V231.28H220.122C220.802 231.28 221.33 231.4 221.706 231.64C222.09 231.872 222.362 232.204 222.522 232.636C222.682 233.068 222.762 233.568 222.762 234.136V238C222.762 238.6 222.682 239.128 222.522 239.584C222.362 240.032 222.098 240.38 221.73 240.628C221.362 240.876 220.854 241 220.206 241H218.01ZM218.922 240.316H220.146C220.658 240.316 221.034 240.212 221.274 240.004C221.514 239.788 221.666 239.496 221.73 239.128C221.794 238.752 221.826 238.328 221.826 237.856V234.232C221.826 233.744 221.782 233.336 221.694 233.008C221.614 232.672 221.45 232.42 221.202 232.252C220.962 232.076 220.598 231.988 220.11 231.988H218.922V240.316ZM224.256 241V231.28H227.772V231.988H225.18V235.636H227.292V236.308H225.18V240.316H227.796V241H224.256ZM229.049 241V231.28H231.377C231.961 231.28 232.421 231.388 232.757 231.604C233.093 231.82 233.329 232.12 233.465 232.504C233.609 232.888 233.681 233.34 233.681 233.86C233.681 234.316 233.605 234.74 233.453 235.132C233.309 235.516 233.065 235.824 232.721 236.056C232.385 236.288 231.941 236.404 231.389 236.404H229.961V241H229.049ZM229.961 235.72H231.125C231.517 235.72 231.833 235.664 232.073 235.552C232.321 235.432 232.501 235.236 232.613 234.964C232.725 234.692 232.781 234.324 232.781 233.86C232.781 233.364 232.733 232.98 232.637 232.708C232.541 232.428 232.373 232.236 232.133 232.132C231.901 232.02 231.569 231.964 231.137 231.964H229.961V235.72ZM233.83 241L235.882 231.28H236.842L238.906 241H238.006L237.526 238.396H235.21L234.718 241H233.83ZM235.342 237.736H237.406L236.374 232.492L235.342 237.736ZM240.077 241V231.28H242.273C242.881 231.28 243.357 231.38 243.701 231.58C244.053 231.772 244.305 232.056 244.457 232.432C244.609 232.8 244.685 233.24 244.685 233.752C244.685 234.112 244.645 234.452 244.565 234.772C244.485 235.092 244.349 235.364 244.157 235.588C243.965 235.812 243.693 235.96 243.341 236.032L244.829 241H243.941L242.513 236.224H240.989V241H240.077ZM240.989 235.552H242.225C242.633 235.552 242.949 235.484 243.173 235.348C243.397 235.212 243.557 235.012 243.653 234.748C243.749 234.484 243.797 234.152 243.797 233.752C243.797 233.152 243.693 232.704 243.485 232.408C243.277 232.112 242.865 231.964 242.249 231.964H240.989V235.552ZM247.3 241V231.988H245.464V231.28H250V231.988H248.212V241H247.3ZM250.914 241L251.154 231.28H252.066L253.986 239.716L255.942 231.28H256.854L257.094 241H256.338L256.146 233.26L254.286 241H253.698L251.862 233.272L251.67 241H250.914ZM258.697 241V231.28H262.213V231.988H259.621V235.636H261.733V236.308H259.621V240.316H262.237V241H258.697ZM263.491 241V231.28H264.151L267.247 238.828V231.28H268.039V241H267.391L264.283 233.368V241H263.491ZM270.925 241V231.988H269.089V231.28H273.625V231.988H271.837V241H270.925Z" fill="#001438"/>
<path d="M185.942 228.949C186.168 229.229 186.534 229.229 186.759 228.949L187.168 228.442C187.394 228.162 187.394 227.707 187.168 227.427C186.415 226.493 186.415 225.159 187.168 224.224C187.394 223.944 187.394 223.49 187.168 223.21L186.759 222.703C186.533 222.422 186.167 222.422 185.941 222.703L183.833 225.318C183.607 225.599 183.607 226.053 183.833 226.333L185.942 228.949ZM189.411 228.442L189.82 228.949C190.045 229.23 190.411 229.23 190.637 228.949L192.745 226.334C192.971 226.053 192.971 225.599 192.745 225.319L190.637 222.703C190.411 222.423 190.045 222.423 189.82 222.703L189.411 223.21C189.185 223.49 189.185 223.945 189.411 224.225C190.164 225.159 190.164 226.493 189.411 227.428C189.185 227.708 189.185 228.162 189.411 228.442ZM199.274 235.869H192.584C191.43 235.869 190.484 237.304 189.33 237.304H187.133C186.009 237.304 185.029 235.869 183.906 235.869H177.305C176.987 235.869 176.727 236.192 176.727 236.587V237.304C176.727 238.882 177.767 240.174 179.039 240.174H197.539C198.811 240.174 199.852 238.882 199.852 237.304V236.587C199.852 236.192 199.592 235.869 199.274 235.869ZM197.539 219.369C197.539 218.186 196.759 217.217 195.805 217.217H180.774C179.82 217.217 179.039 218.186 179.039 219.369V230.435C179.039 232.644 180.83 234.435 183.039 234.435H193.539C195.749 234.435 197.539 232.644 197.539 230.435V219.369ZM195.227 227.565C195.227 229.774 193.436 231.565 191.227 231.565H185.352C183.142 231.565 181.352 229.774 181.352 227.565V224.087C181.352 221.878 183.143 220.087 185.352 220.087H191.227C193.436 220.087 195.227 221.878 195.227 224.087V227.565Z" fill="#001438"/>
<path d="M221.213 78L221.453 68.28H222.365L224.285 76.716L226.241 68.28H227.153L227.393 78H226.637L226.445 70.26L224.585 78H223.997L222.161 70.272L221.969 78H221.213ZM228.48 78L230.532 68.28H231.492L233.556 78H232.656L232.176 75.396H229.86L229.368 78H228.48ZM229.992 74.736H232.056L231.024 69.492L229.992 74.736ZM234.727 78V68.28H236.923C237.531 68.28 238.007 68.38 238.351 68.58C238.703 68.772 238.955 69.056 239.107 69.432C239.259 69.8 239.335 70.24 239.335 70.752C239.335 71.112 239.295 71.452 239.215 71.772C239.135 72.092 238.999 72.364 238.807 72.588C238.615 72.812 238.343 72.96 237.991 73.032L239.479 78H238.591L237.163 73.224H235.639V78H234.727ZM235.639 72.552H236.875C237.283 72.552 237.599 72.484 237.823 72.348C238.047 72.212 238.207 72.012 238.303 71.748C238.399 71.484 238.447 71.152 238.447 70.752C238.447 70.152 238.343 69.704 238.135 69.408C237.927 69.112 237.515 68.964 236.899 68.964H235.639V72.552ZM240.856 78V68.28H241.78V73.416L244.372 68.28H245.248L243.256 72.456L245.68 78H244.78L242.644 73.14L241.78 74.724V78H240.856ZM246.528 78V68.28H250.044V68.988H247.451V72.636H249.564V73.308H247.451V77.316H250.068V78H246.528ZM252.521 78V68.988H250.685V68.28H255.221V68.988H253.433V78H252.521ZM256.314 78V68.28H257.226V78H256.314ZM258.95 78V68.28H259.61L262.706 75.828V68.28H263.498V78H262.85L259.742 70.368V78H258.95ZM267.38 78.132C266.764 78.132 266.28 78.004 265.928 77.748C265.584 77.492 265.34 77.132 265.196 76.668C265.052 76.196 264.98 75.652 264.98 75.036V71.244C264.98 70.62 265.048 70.08 265.184 69.624C265.328 69.168 265.576 68.816 265.928 68.568C266.288 68.312 266.792 68.184 267.44 68.184C268.024 68.184 268.484 68.292 268.82 68.508C269.164 68.724 269.412 69.04 269.564 69.456C269.716 69.872 269.792 70.38 269.792 70.98V71.316H268.928V70.98C268.928 70.516 268.884 70.132 268.796 69.828C268.716 69.524 268.572 69.296 268.364 69.144C268.156 68.992 267.852 68.916 267.452 68.916C267.004 68.916 266.668 69.012 266.444 69.204C266.22 69.396 266.072 69.66 266 69.996C265.936 70.332 265.904 70.716 265.904 71.148V75.144C265.904 75.616 265.944 76.02 266.024 76.356C266.112 76.684 266.268 76.94 266.492 77.124C266.724 77.3 267.048 77.388 267.464 77.388C267.872 77.388 268.184 77.3 268.4 77.124C268.616 76.94 268.768 76.68 268.856 76.344C268.944 76.008 268.988 75.6 268.988 75.12V73.98H267.548V73.296H269.828V78H269.24L269.132 76.896C269.012 77.264 268.812 77.564 268.532 77.796C268.26 78.02 267.876 78.132 267.38 78.132ZM218.01 96V86.28H220.122C220.802 86.28 221.33 86.4 221.706 86.64C222.09 86.872 222.362 87.204 222.522 87.636C222.682 88.068 222.762 88.568 222.762 89.136V93C222.762 93.6 222.682 94.128 222.522 94.584C222.362 95.032 222.098 95.38 221.73 95.628C221.362 95.876 220.854 96 220.206 96H218.01ZM218.922 95.316H220.146C220.658 95.316 221.034 95.212 221.274 95.004C221.514 94.788 221.666 94.496 221.73 94.128C221.794 93.752 221.826 93.328 221.826 92.856V89.232C221.826 88.744 221.782 88.336 221.694 88.008C221.614 87.672 221.45 87.42 221.202 87.252C220.962 87.076 220.598 86.988 220.11 86.988H218.922V95.316ZM224.256 96V86.28H227.772V86.988H225.18V90.636H227.292V91.308H225.18V95.316H227.796V96H224.256ZM229.049 96V86.28H231.377C231.961 86.28 232.421 86.388 232.757 86.604C233.093 86.82 233.329 87.12 233.465 87.504C233.609 87.888 233.681 88.34 233.681 88.86C233.681 89.316 233.605 89.74 233.453 90.132C233.309 90.516 233.065 90.824 232.721 91.056C232.385 91.288 231.941 91.404 231.389 91.404H229.961V96H229.049ZM229.961 90.72H231.125C231.517 90.72 231.833 90.664 232.073 90.552C232.321 90.432 232.501 90.236 232.613 89.964C232.725 89.692 232.781 89.324 232.781 88.86C232.781 88.364 232.733 87.98 232.637 87.708C232.541 87.428 232.373 87.236 232.133 87.132C231.901 87.02 231.569 86.964 231.137 86.964H229.961V90.72ZM233.83 96L235.882 86.28H236.842L238.906 96H238.006L237.526 93.396H235.21L234.718 96H233.83ZM235.342 92.736H237.406L236.374 87.492L235.342 92.736ZM240.077 96V86.28H242.273C242.881 86.28 243.357 86.38 243.701 86.58C244.053 86.772 244.305 87.056 244.457 87.432C244.609 87.8 244.685 88.24 244.685 88.752C244.685 89.112 244.645 89.452 244.565 89.772C244.485 90.092 244.349 90.364 244.157 90.588C243.965 90.812 243.693 90.96 243.341 91.032L244.829 96H243.941L242.513 91.224H240.989V96H240.077ZM240.989 90.552H242.225C242.633 90.552 242.949 90.484 243.173 90.348C243.397 90.212 243.557 90.012 243.653 89.748C243.749 89.484 243.797 89.152 243.797 88.752C243.797 88.152 243.693 87.704 243.485 87.408C243.277 87.112 242.865 86.964 242.249 86.964H240.989V90.552ZM247.3 96V86.988H245.464V86.28H250V86.988H248.212V96H247.3ZM250.914 96L251.154 86.28H252.066L253.986 94.716L255.942 86.28H256.854L257.094 96H256.338L256.146 88.26L254.286 96H253.698L251.862 88.272L251.67 96H250.914ZM258.697 96V86.28H262.213V86.988H259.621V90.636H261.733V91.308H259.621V95.316H262.237V96H258.697ZM263.491 96V86.28H264.151L267.247 93.828V86.28H268.039V96H267.391L264.283 88.368V96H263.491ZM270.925 96V86.988H269.089V86.28H273.625V86.988H271.837V96H270.925Z" fill="#001438"/>
<path d="M188.289 70.8696C181.903 70.8696 176.727 76.0085 176.727 82.3479C176.727 88.6873 181.903 93.8261 188.289 93.8261C194.675 93.8261 199.852 88.6873 199.852 82.3479C199.852 76.0085 194.675 70.8696 188.289 70.8696ZM188.289 90.864C183.548 90.864 179.71 87.0554 179.71 82.3479C179.71 77.6413 183.547 73.8318 188.289 73.8318C193.03 73.8318 196.868 77.6404 196.868 82.3479C196.868 87.0544 193.031 90.864 188.289 90.864ZM188.289 76.4236C184.993 76.4236 182.321 79.0761 182.321 82.3479C182.321 85.6197 184.993 88.2722 188.289 88.2722C191.585 88.2722 194.257 85.6197 194.257 82.3479C194.257 79.0761 191.585 76.4236 188.289 76.4236ZM188.289 85.31C186.644 85.31 185.305 83.9812 185.305 82.3479C185.305 80.7146 186.644 79.3858 188.289 79.3858C189.935 79.3858 191.273 80.7146 191.273 82.3479C191.273 83.9812 189.935 85.31 188.289 85.31Z" fill="#001438"/>
<path d="M144 81.087C144 79.4302 145.343 78.087 147 78.087H154.417C156.074 78.087 157.417 79.4302 157.417 81.087V88.8696C157.417 90.5265 156.074 91.8696 154.417 91.8696H144V81.087Z" fill="#001438" stroke="#001438" stroke-width="2"/>
<path d="M144 129.87C144 128.213 145.343 126.87 147 126.87H154.417C156.074 126.87 157.417 128.213 157.417 129.87V137.652C157.417 139.309 156.074 140.652 154.417 140.652H144V129.87Z" stroke="#001438" stroke-width="2"/>
<path d="M144 177.217C144 175.56 145.343 174.217 147 174.217H154.417C156.074 174.217 157.417 175.56 157.417 177.217V185.478C157.417 187.135 156.074 188.478 154.417 188.478H144V177.217Z" stroke="#001438" stroke-width="2"/>
<path d="M144 226.478C144 224.821 145.343 223.478 147 223.478H154.417C156.074 223.478 157.417 224.821 157.417 226.478V234.739C157.417 236.396 156.074 237.739 154.417 237.739H144V226.478Z" fill="#001438" stroke="#001438" stroke-width="2"/>
<path d="M144 273.348C144 271.691 145.343 270.348 147 270.348H154.417C156.074 270.348 157.417 271.691 157.417 273.348V281.13C157.417 282.787 156.074 284.13 154.417 284.13H144V273.348Z" fill="#001438" stroke="#001438" stroke-width="2"/>
</g>
<defs>
<clipPath id="clip0_1208_1458">
<rect width="418" height="406" fill="white"/>
</clipPath>
</defs>
</svg>
