<svg width="32" height="32" viewBox="0 0 32 32" fill="none" xmlns="http://www.w3.org/2000/svg">
<path d="M14.9936 17.0464L14.9753 17.0282L14.9553 17.0119C14.6672 16.7779 14.5 16.4265 14.5 16.0554V8.58H16C16.8284 8.58 17.5 9.25157 17.5 10.08V13.3967C17.5 14.7608 18.0419 16.069 19.0064 17.0336L19.0163 17.0434L19.0266 17.0526C19.6377 17.5994 19.6647 18.5482 19.0864 19.1264C18.5082 19.7047 17.5594 19.6777 17.0126 19.0666L17.0034 19.0563L16.9936 19.0464L14.9936 17.0464ZM0.5 16C0.5 7.47614 7.47614 0.5 16 0.5C24.5239 0.5 31.5 7.47614 31.5 16C31.5 24.5239 24.5239 31.5 16 31.5C7.47614 31.5 0.5 24.5239 0.5 16ZM28.5 16C28.5 9.08386 22.9161 3.5 16 3.5C9.08386 3.5 3.5 9.08386 3.5 16C3.5 22.9161 9.08386 28.5 16 28.5C22.9161 28.5 28.5 22.9161 28.5 16Z" fill="#FF7003" stroke="#001438"/>
</svg>
